<svg opacity="0.2" xmlns="http://www.w3.org/2000/svg" xmlns:xlink="http://www.w3.org/1999/xlink" viewBox="0 0 1728 896"><defs><style>.cls-1{font-size:531.94px;font-family:Inter-Bold, Inter;font-weight:700;letter-spacing:-0.03em;}.cls-1,.cls-2{fill:none;}.cls-3{clip-path:url(#clip-path);}.cls-4{fill:url(#New_Gradient_Swatch_copy_2);}.cls-5{fill:#ffeed9;}.cls-6{fill:#f3796f;}.cls-7{fill:#22183f;}.cls-8{fill:url(#New_Gradient_Swatch_copy);}.cls-9{fill:#00a8b3;}.cls-10{fill:url(#New_Gradient_Swatch);}.cls-11{clip-path:url(#clip-path-2);}.cls-12{fill:url(#New_Gradient_Swatch_copy_2-2);}.cls-13{fill:url(#New_Gradient_Swatch_copy_7);}.cls-14{fill:url(#New_Gradient_Swatch_copy_4);}.cls-15{fill:url(#New_Gradient_Swatch_copy_3);}.cls-16{fill:url(#New_Gradient_Swatch_copy-2);}.cls-17{fill:url(#New_Gradient_Swatch_copy_5);}.cls-18{fill:url(#New_Gradient_Swatch_copy_6);}</style><clipPath id="clip-path"><text class="cls-1" transform="translate(309.08 1588.7)">Sem</text></clipPath><radialGradient id="New_Gradient_Swatch_copy_2" cx="854.57" cy="1458.53" r="986.08" gradientUnits="userSpaceOnUse"><stop offset="0.08" stop-color="#2f5b78"/><stop offset="0.29" stop-color="#2e5775"/><stop offset="0.49" stop-color="#2c4c6b"/><stop offset="0.69" stop-color="#28395b"/><stop offset="0.88" stop-color="#231e44"/><stop offset="0.92" stop-color="#22183f"/></radialGradient><linearGradient id="New_Gradient_Swatch_copy" x1="1170.95" y1="1142.16" x2="1336.89" y2="976.22" gradientUnits="userSpaceOnUse"><stop offset="0.25" stop-color="#00a8b3"/><stop offset="0.42" stop-color="#01a6b1"/><stop offset="0.5" stop-color="#029eab"/><stop offset="0.57" stop-color="#0591a0"/><stop offset="0.63" stop-color="#0a7e91"/><stop offset="0.68" stop-color="#10657d"/><stop offset="0.73" stop-color="#174765"/><stop offset="0.77" stop-color="#1f2449"/><stop offset="0.78" stop-color="#22183f"/></linearGradient><linearGradient id="New_Gradient_Swatch" x1="1314.73" y1="850.11" x2="1243.88" y2="920.96" gradientUnits="userSpaceOnUse"><stop offset="0" stop-color="#00a8b3"/><stop offset="0.03" stop-color="#0593a2"/><stop offset="0.09" stop-color="#0d7288"/><stop offset="0.16" stop-color="#135671"/><stop offset="0.24" stop-color="#193f5f"/><stop offset="0.33" stop-color="#1d2e50"/><stop offset="0.43" stop-color="#202146"/><stop offset="0.57" stop-color="#221a41"/><stop offset="0.92" stop-color="#22183f"/></linearGradient><clipPath id="clip-path-2"><path class="cls-2" d="M585.58,328.13q-2.26-22.85-19.45-35.51T519.47,280q-20,0-33.81,5.57t-21.07,15.4a36.5,36.5,0,0,0-7.27,22.29,31.38,31.38,0,0,0,4.44,18.13,43.16,43.16,0,0,0,13.32,13.32,94.77,94.77,0,0,0,19.64,9.64,192.12,192.12,0,0,0,23.8,6.89l34.76,8.31a245.56,245.56,0,0,1,46.47,15.11,141.49,141.49,0,0,1,36.65,23.24,97.7,97.7,0,0,1,24.08,32.49q8.6,18.7,8.79,42.88-.19,35.52-18,61.49T599.85,595q-33.54,14.26-80.76,14.27-46.85,0-81.51-14.36t-54-42.6q-19.37-28.23-20.31-70H442.4q1.32,19.47,11.24,32.4t26.63,19.46q16.73,6.51,37.88,6.51,20.77,0,36.17-6t23.9-16.81a38.87,38.87,0,0,0,8.5-24.75q0-13-7.65-21.91T556.78,456A230,230,0,0,0,521,444.68L478.86,434.1q-48.93-11.89-77.27-37.21T373.45,328.7q-.19-35.15,18.79-61.39t52.24-41q33.24-14.73,75.56-14.73,43.07,0,75.27,14.73t50.16,41q17.94,26.25,18.51,60.82ZM840.93,609.4q-44.77,0-77-18.22a123.33,123.33,0,0,1-49.58-51.76Q697,505.88,697,460q0-44.76,17.38-78.58t49-52.7q31.64-18.88,74.33-18.89A153.5,153.5,0,0,1,891.27,319a120.86,120.86,0,0,1,43.45,27.48q18.6,18.33,29,46t10.39,64.7v22.1h-245V429.38H898.35q0-17.37-7.55-30.79a55,55,0,0,0-20.88-21.06q-13.3-7.65-30.88-7.65-18.33,0-32.4,8.4a60.36,60.36,0,0,0-22,22.48A64.11,64.11,0,0,0,776.51,432v47.41q0,21.54,8,37.21a57.38,57.38,0,0,0,22.76,24.18q14.75,8.5,35,8.5a76.09,76.09,0,0,0,24.56-3.77,51,51,0,0,0,19.08-11.34A49.23,49.23,0,0,0,898,515.71l74.42,4.91a101.34,101.34,0,0,1-23.14,46.75q-17.47,19.93-45,31T840.93,609.4Zm171.86-5.66V313.59h76.69v51.19h3.4q9.07-25.5,30.23-40.24t50.62-14.73q29.85,0,50.81,14.83t28,40.14h3q8.88-24.94,32.21-39.95t55.26-15q40.6,0,66,25.78t25.4,73V603.74h-80.28V424.47q0-24.18-12.84-36.27t-32.12-12.09q-21.92,0-34.19,13.89t-12.28,36.55V603.74h-78v-181q0-21.34-12.19-34t-32-12.66a44.31,44.31,0,0,0-24.08,6.71,47.27,47.27,0,0,0-16.91,18.7q-6.23,12-6.23,28.05V603.74Z"/></clipPath><radialGradient id="New_Gradient_Swatch_copy_2-2" cx="887.59" cy="473.57" r="986.08" xlink:href="#New_Gradient_Swatch_copy_2"/><linearGradient id="New_Gradient_Swatch_copy_7" x1="1301.32" y1="552.82" x2="1244.06" y2="610.08" gradientUnits="userSpaceOnUse"><stop offset="0.24" stop-color="#00a8b3"/><stop offset="0.28" stop-color="#0497a6"/><stop offset="0.41" stop-color="#0f6a81"/><stop offset="0.53" stop-color="#174664"/><stop offset="0.64" stop-color="#1d2d50"/><stop offset="0.74" stop-color="#211d43"/><stop offset="0.82" stop-color="#22183f"/></linearGradient><linearGradient id="New_Gradient_Swatch_copy_4" x1="1153.66" y1="448.13" x2="1309.75" y2="292.05" gradientUnits="userSpaceOnUse"><stop offset="0.19" stop-color="#00a8b3"/><stop offset="0.35" stop-color="#01a6b1"/><stop offset="0.44" stop-color="#029eab"/><stop offset="0.51" stop-color="#0591a0"/><stop offset="0.57" stop-color="#0a7e91"/><stop offset="0.62" stop-color="#10657d"/><stop offset="0.66" stop-color="#174765"/><stop offset="0.71" stop-color="#1f2449"/><stop offset="0.72" stop-color="#22183f"/></linearGradient><linearGradient id="New_Gradient_Swatch_copy_3" x1="980.96" y1="242.69" x2="1081.38" y2="142.27" gradientUnits="userSpaceOnUse"><stop offset="0.34" stop-color="#00a8b3"/><stop offset="0.41" stop-color="#029fac"/><stop offset="0.53" stop-color="#088899"/><stop offset="0.68" stop-color="#11617a"/><stop offset="0.85" stop-color="#1d2d50"/><stop offset="0.92" stop-color="#22183f"/></linearGradient><linearGradient id="New_Gradient_Swatch_copy-2" x1="1203.97" y1="157.19" x2="1369.9" y2="-8.74" xlink:href="#New_Gradient_Swatch_copy"/><linearGradient id="New_Gradient_Swatch_copy_5" x1="1474.09" y1="214.38" x2="1402.44" y2="286.03" gradientUnits="userSpaceOnUse"><stop offset="0.29" stop-color="#00a8b3"/><stop offset="0.42" stop-color="#0690a0"/><stop offset="0.68" stop-color="#14546f"/><stop offset="0.91" stop-color="#22183f"/></linearGradient><linearGradient id="New_Gradient_Swatch_copy_6" x1="560.72" y1="260.62" x2="643.14" y2="178.2" gradientUnits="userSpaceOnUse"><stop offset="0.31" stop-color="#00a8b3"/><stop offset="0.35" stop-color="#0497a6"/><stop offset="0.48" stop-color="#0f6a81"/><stop offset="0.61" stop-color="#174664"/><stop offset="0.73" stop-color="#1d2d50"/><stop offset="0.84" stop-color="#211d43"/><stop offset="0.92" stop-color="#22183f"/></linearGradient></defs><g id="main_dark" data-name="main dark"><g id="sem"><g class="cls-3"><rect class="cls-4" x="221.11" y="825.07" width="1266.93" height="1266.93"/><polygon class="cls-5" points="1488.04 1803.47 1488.04 825.07 509.63 825.07 1488.04 1803.47"/><path class="cls-6" d="M663.66,825.07l450.5,450.5a51.21,51.21,0,1,0,72.43-72.42L808.51,825.07Z"/><path class="cls-7" d="M221.11,882.66v144.86l482.73,482.73a51.21,51.21,0,0,0,72.42-72.43Z"/><polygon class="cls-7" points="885 825.07 1488.04 1428.11 1488.04 1364.26 948.85 825.07 885 825.07"/><path class="cls-5" d="M352.92,825.07H497.78l376,375.95a51.22,51.22,0,1,1-72.43,72.43Z"/><path class="cls-6" d="M474.24,825.07l842.11,842.12a51.22,51.22,0,0,0,72.43-72.43L619.09,825.07Z"/><polygon class="cls-8" points="1093.7 825.07 948.85 825.07 1488.04 1364.26 1488.04 1219.41 1093.7 825.07"/><polygon class="cls-6" points="1136.14 825.07 1488.04 1176.97 1488.04 1032.12 1280.99 825.07 1136.14 825.07"/><polygon class="cls-9" points="1374.51 825.07 1488.04 938.6 1488.04 825.07 1374.51 825.07"/><path class="cls-7" d="M1191.46,825.07h144.85L1376,864.75a51.21,51.21,0,1,1-72.43,72.42Z"/><path class="cls-10" d="M1376,937.17a51.29,51.29,0,0,0,7.53-9.58L1281,825.07h-89.53l112.1,112.1A51.22,51.22,0,0,0,1376,937.17Z"/><path class="cls-9" d="M393.36,825.07H538.22L652.38,939.24A51.21,51.21,0,1,1,580,1011.66Z"/><path class="cls-7" d="M652.38,939.24,538.22,825.07h-64l182.11,182.12A51.21,51.21,0,0,0,652.38,939.24Z"/></g></g></g><g id="main"><g id="sem-2" data-name="sem"><g class="cls-11"><rect class="cls-12" x="254.12" y="-159.9" width="1266.93" height="1266.93"/><polygon class="cls-5" points="1521.06 818.51 1521.06 -159.9 542.65 -159.9 1521.06 818.51"/><path class="cls-6" d="M696.67-159.89l450.5,450.5a51.21,51.21,0,0,0,72.43-72.42L841.52-159.89Z"/><path class="cls-7" d="M254.12-102.3V42.55L736.85,525.29a51.22,51.22,0,1,0,72.43-72.43Z"/><path class="cls-7" d="M1007.47,585a51.22,51.22,0,0,0,0,72.43l176,176a51.21,51.21,0,0,0,72.42-72.43l-176-176A51.22,51.22,0,0,0,1007.47,585Z"/><polygon class="cls-7" points="918.01 -159.9 1521.05 443.15 1521.05 379.3 981.86 -159.9 918.01 -159.9"/><path class="cls-5" d="M385.94-159.89H530.79l376,376a51.22,51.22,0,0,1-72.43,72.43Z"/><path class="cls-5" d="M417.23,261.83a51.22,51.22,0,0,1-72.43,72.43l-90.68-90.69V98.72Z"/><path class="cls-9" d="M593,574.94a51.22,51.22,0,0,0,0,72.43l418.09,418.1A51.22,51.22,0,0,0,1083.54,993L665.45,574.94A51.24,51.24,0,0,0,593,574.94Z"/><path class="cls-5" d="M856.88,1107,727.1,977.26a51.22,51.22,0,0,1,72.43-72.43L1001.73,1107Z"/><path class="cls-6" d="M1374.06,1107,1093.17,826.15a51.22,51.22,0,0,1,72.43-72.43L1518.91,1107Z"/><path class="cls-9" d="M1125.1,551.6a51.21,51.21,0,1,1,72.42-72.43L1521.05,802.7V947.56Z"/><path class="cls-9" d="M1291.1,251.51a51.22,51.22,0,0,1,72.43-72.43L1521.05,336.6V481.46Z"/><path class="cls-6" d="M507.25-159.89l842.11,842.11a51.21,51.21,0,0,0,72.43-72.42L652.11-159.89Z"/><path class="cls-13" d="M1197.52,479.17a51.22,51.22,0,0,0-60.23-9l212.07,212.07a51.23,51.23,0,0,0,60.24,9Z"/><path class="cls-14" d="M965,44.52A51.22,51.22,0,0,0,892.57,117l628.48,628.48V600.58Z"/><path class="cls-7" d="M879.36,67.36A51.17,51.17,0,0,0,892.57,117L1435,659.39a51.18,51.18,0,0,0-13.22-49.59Z"/><path class="cls-15" d="M965,44.52a51.21,51.21,0,0,0-67.91-4l250.08,250.08a51.23,51.23,0,0,0,67.92,4Z"/><polygon class="cls-16" points="1126.72 -159.9 981.86 -159.9 1521.05 379.3 1521.05 234.44 1126.72 -159.9"/><path class="cls-17" d="M1309.17,167.41,1521.05,379.3V336.6L1363.53,179.08A51.2,51.2,0,0,0,1309.17,167.41Z"/><polygon class="cls-6" points="1169.15 -159.9 1521.05 192.01 1521.05 47.15 1314.01 -159.9 1169.15 -159.9"/><path class="cls-6" d="M553.38,465.07a51.21,51.21,0,0,0,0,72.42L685.48,669.6a51.22,51.22,0,0,0,72.43-72.43l-132.1-132.1A51.22,51.22,0,0,0,553.38,465.07Z"/><path class="cls-5" d="M505.19,144.45a51.22,51.22,0,0,0,0,72.43l176,176a51.21,51.21,0,1,0,72.42-72.42l-176-176A51.22,51.22,0,0,0,505.19,144.45Z"/><path class="cls-7" d="M593,574.94c-.37.37-.68.78-1,1.16l93.5,93.5a51.22,51.22,0,0,0,72.43,0c.37-.37.69-.77,1-1.15l-93.5-93.51A51.24,51.24,0,0,0,593,574.94Z"/><path class="cls-9" d="M378.86-50a51.22,51.22,0,0,0,0,72.43L638.51,282.1a51.22,51.22,0,0,0,72.43-72.43L451.28-50A51.21,51.21,0,0,0,378.86-50Z"/><path class="cls-18" d="M713,279.87,577.62,144.45a51.22,51.22,0,0,0-72.43,0c-.72.73-1.42,1.48-2.09,2.24L638.51,282.1a51.22,51.22,0,0,0,72.43,0C711.66,281.37,712.35,280.63,713,279.87Z"/><path class="cls-7" d="M254.12,329.63V474.48L434.19,654.55a51.21,51.21,0,0,0,72.43-72.42Z"/><path class="cls-9" d="M426.37-159.89H571.23L685.4-45.72a51.21,51.21,0,0,1,0,72.42,51.22,51.22,0,0,1-72.43,0Z"/><path class="cls-7" d="M685.4-45.72,571.23-159.89h-64L689.37,22.22A51.21,51.21,0,0,0,685.4-45.72Z"/><path class="cls-6" d="M869.16,363.7a51.22,51.22,0,0,0,0,72.43l67.75,67.75a51.21,51.21,0,0,0,72.42-72.43L941.59,363.7A51.22,51.22,0,0,0,869.16,363.7Z"/><path class="cls-6" d="M441.37,797.88a51.21,51.21,0,0,0,0,72.42l39.34,39.35a51.22,51.22,0,0,0,72.43-72.43L513.8,797.88A51.22,51.22,0,0,0,441.37,797.88Z"/><path class="cls-6" d="M1343.77,382.85a51.21,51.21,0,0,1,72.43-72.42l104.85,104.85V560.13Z"/><path class="cls-7" d="M1521.05,502.61l-14.92-14.93a51.22,51.22,0,1,0-72.43,72.43l87.35,87.35Z"/></g></g></g></svg>