<?xml version="1.0" encoding="utf-8"?>
<!-- Generator: Adobe Illustrator 21.0.0, SVG Export Plug-In . SVG Version: 6.00 Build 0)  -->
<svg version="1.1" id="Layer_1" xmlns="http://www.w3.org/2000/svg" xmlns:xlink="http://www.w3.org/1999/xlink" x="0px" y="0px"
	 viewBox="0 0 78 64" style="enable-background:new 0 0 78 64;" xml:space="preserve">
<style type="text/css">
	.st0_bliem{fill:#ffffff;}
</style>
<g id="logo">
	<path class="st0_bliem" d="M9.5,36.6c0.3-0.7,0.5-1.5,0.5-2.3c0-1.6-0.6-2.9-1.7-4c-1.1-1.1-2.4-1.6-4-1.6H0v22.2l6.2,0
		c2.1,0,3.9-0.8,5.3-2.2c1.5-1.4,2.2-3.2,2.2-5.3c0-1.4-0.4-2.7-1.1-3.9C11.8,38.2,10.8,37.2,9.5,36.6z M3.8,32.4h0.5
		c0.5,0,1,0.2,1.3,0.6c0.4,0.4,0.6,0.8,0.6,1.3c0,0.5-0.2,1-0.5,1.3c-0.4,0.3-0.8,0.5-1.4,0.5H3.8V32.4z M8.8,45.9
		C8.1,46.6,7.2,47,6.2,47H3.8v-7.4h2.4c1,0,1.9,0.4,2.6,1.1c0.7,0.7,1.1,1.6,1.1,2.6C9.9,44.3,9.5,45.2,8.8,45.9z"/>
	<path class="st0_bliem" d="M27.4,30.8c-0.6,0-1.2,0.2-1.6,0.6c-0.4,0.4-0.7,1-0.7,1.6c0,0.6,0.2,1.2,0.7,1.6c0.4,0.4,1,0.7,1.6,0.7
		c0.6,0,1.2-0.2,1.6-0.7c0.4-0.4,0.6-1,0.6-1.6c0-0.6-0.2-1.1-0.7-1.6C28.5,31,28,30.8,27.4,30.8z"/>
	<rect x="25.5" y="36.2" class="st0_bliem" width="3.8" height="14.5"/>
	<path class="st0_bliem" d="M40.8,36.2c-2.1,0-3.9,0.7-5.3,2.2c-1.5,1.4-2.2,3.2-2.2,5.3c0,2.1,0.7,3.9,2.2,5.3c1.4,1.4,3.2,2.2,5.3,2.2
		c2,0,3.7-0.7,5.1-2l-2.3-3.1c-0.7,0.9-1.7,1.3-2.8,1.3c-0.8,0-1.6-0.2-2.2-0.7c-0.7-0.5-1.1-1.1-1.3-1.9h10.9
		c0.1-0.4,0.1-0.7,0.1-1.1c0-2.1-0.7-3.8-2.2-5.3C44.7,37,42.9,36.2,40.8,36.2z M37.5,42c0.7-1.3,1.8-2,3.3-2c1.5,0,2.6,0.7,3.2,2
		H37.5z"/>
	<path class="st0_bliem" d="M75.8,38.4c-1.5-1.4-3.2-2.2-5.3-2.2c-2.1,0-3.8,0.7-5.3,2.2c-1.5-1.5-3.2-2.2-5.3-2.2c-2.1,0-3.9,0.7-5.3,2.2
		c-1.5,1.4-2.2,3.2-2.2,5.3v7.1h3.8v-7.1c0-1,0.4-1.9,1.1-2.6c0.7-0.7,1.6-1.1,2.6-1.1c1,0,1.9,0.4,2.6,1.1c0.7,0.7,1.1,1.6,1.1,2.6
		v7.1h3.8v-9v0c0.7-1.2,1.8-1.8,3.2-1.8c1,0,1.9,0.4,2.6,1.1c0.7,0.7,1.1,1.6,1.1,2.6v7.1H78v-7.1C78,41.6,77.3,39.8,75.8,38.4z"/>
	<path class="st0_bliem" d="M15.5,19c0,0,0-0.1,0-0.1c-0.9-4.3-3.5-7.7-7.8-9c-2.2-0.7-4.7-0.8-7-0.4c-0.3,0.1-0.4,0.3-0.4,0.6
		c-0.8,8.3,7.3,12.3,14.5,12.8c0.3,0,0.5-0.2,0.6-0.4C15.5,21.4,15.6,20.2,15.5,19C15.5,19,15.5,19,15.5,19z M1.4,10.6
		c1.6-0.2,3.4-0.1,5,0.2c4.3,0.9,7,4.1,7.9,8.3c0,0.4,0,0.9,0,1.3c-1.6-3.2-4.5-6.1-8.1-6.7c-0.8-0.1-1.1,1.1-0.3,1.2
		c3.5,0.5,6.3,3.5,7.7,6.6C7.5,20.8,1.1,17.4,1.4,10.6z"/>
	<path class="st0_bliem" d="M21.3,23.2c7-0.5,13.9-2.7,19.3-7.2c4.2-3.5,6.1-9.4,5.6-14.8c0-0.3-0.2-0.7-0.6-0.8
		c-3.7-0.7-7.7-0.5-11.3,0.4c-7.7,2-12.5,8.1-14.1,15.6c-0.3,2,0,4.1,0.4,6.1C20.6,23,21,23.3,21.3,23.2z M35,2.4
		c3-0.8,6.5-1,9.6-0.5c0.3,4.7-1.4,9.4-4.8,12.6C35.4,18.7,29,20.8,23,21.5c2.3-5.7,7.3-11.1,13.7-12c1-0.2,0.6-1.7-0.4-1.6
		c-6.6,1-11.7,6.4-14.4,12.3c-0.1-1.1-0.2-2.2,0-3.2C23.3,9.7,27.7,4.2,35,2.4z"/>
	<path class="st0_bliem" d="M25.8,61c-3.8-2-4.7-8.1-5-12c-0.5-6.5-0.2-13,0-19.5c0.1-2.1-3.2-2.1-3.2,0C17.3,36.2,17,43,17.6,49.6
		c0.5,4.9,1.7,11.6,6.5,14.2C26,64.8,27.6,62,25.8,61z"/>
</g>
</svg>
