<?xml version="1.0" encoding="utf-8"?>
<!-- Generator: Adobe Illustrator 18.0.0, SVG Export Plug-In . SVG Version: 6.00 Build 0)  -->
<!DOCTYPE svg PUBLIC "-//W3C//DTD SVG 1.1//EN" "http://www.w3.org/Graphics/SVG/1.1/DTD/svg11.dtd">
<svg version="1.1" id="Layer_1" xmlns="http://www.w3.org/2000/svg" xmlns:xlink="http://www.w3.org/1999/xlink" x="0px" y="0px"
	 width="400px" height="406px" viewBox="0 0 400 406" enable-background="new 0 0 400 406" xml:space="preserve">
<g>
	<polygon fill="#00AAC6" points="175.8,403.8 24.3,297 217.7,191.6 356.9,244.1 	"/>
	<polygon fill="#009DAD" points="33,292.8 175.8,395.7 350.8,244.9 343.3,241.7 	"/>
	<polygon fill="#00818E" points="24.3,297 40,289.5 25,256 17.8,257.5 16.5,261.2 15.8,271.3 17.2,281.2 22.9,295.6 	"/>
	<path fill="#2EBFCE" d="M174.5,358.5l0-3L17.4,256c-4.1,10.3-3.2,27,6.8,42.7L175.8,406v-2.2L24.3,297c-7.1-12.4-9.9-25.9-6.3-38.1
		L174.5,358.5z"/>
	<polygon fill="#00818E" points="175.8,403.8 175.8,406 356.7,245.8 356.9,244.1 	"/>
	<g>
		<defs>
			<path id="SVGID_70_" d="M33,292.8l142.4,97.4l-0.8-31.7L26.2,264.1C26.6,273.7,28.7,283.3,33,292.8"/>
		</defs>
		<clipPath id="SVGID_7_">
			<use xlink:href="#SVGID_70_"  overflow="visible"/>
		</clipPath>
		
			<linearGradient id="SVGID_8_" gradientUnits="userSpaceOnUse" x1="1024.3767" y1="-249.9601" x2="1025.3214" y2="-249.9601" gradientTransform="matrix(157.7969 0 0 -157.7969 -161617.2188 -39115.7656)">
			<stop  offset="0" style="stop-color:#D9C8AE"/>
			<stop  offset="1" style="stop-color:#F6E7CC"/>
		</linearGradient>
		<rect x="26.2" y="264.1" clip-path="url(#SVGID_7_)" fill="url(#SVGID_8_)" width="149.1" height="126.1"/>
	</g>
	<g>
		<defs>
			<polygon id="SVGID_73_" points="174.5,358.5 175.3,390.2 345.5,244.6 348.6,220.4 			"/>
		</defs>
		<clipPath id="SVGID_9_">
			<use xlink:href="#SVGID_73_"  overflow="visible"/>
		</clipPath>
		
			<linearGradient id="SVGID_10_" gradientUnits="userSpaceOnUse" x1="1025.2708" y1="-249.3687" x2="1026.2155" y2="-249.3687" gradientTransform="matrix(184.3057 0 0 -184.3057 -188788.7344 -45654.75)">
			<stop  offset="0" style="stop-color:#CCBCA4"/>
			<stop  offset="1" style="stop-color:#E9DBC1"/>
		</linearGradient>
		<rect x="174.5" y="220.4" clip-path="url(#SVGID_9_)" fill="url(#SVGID_10_)" width="174.1" height="169.8"/>
	</g>
	<g opacity="0.13">
		<g>
			<defs>
				<rect id="SVGID_78_" x="174.8" y="228.2" width="172.9" height="151.7"/>
			</defs>
			<clipPath id="SVGID_11_">
				<use xlink:href="#SVGID_78_"  overflow="visible"/>
			</clipPath>
			<polygon clip-path="url(#SVGID_11_)" fill="#603913" points="174.8,368.7 175.1,379.9 346.5,236.8 347.6,228.2 			"/>
		</g>
	</g>
	<g opacity="0.13">
		<g>
			<defs>
				<rect id="SVGID_80_" x="27" y="272.4" width="148.1" height="107.5"/>
			</defs>
			<clipPath id="SVGID_12_">
				<use xlink:href="#SVGID_80_"  overflow="visible"/>
			</clipPath>
			<path clip-path="url(#SVGID_12_)" fill="#603913" d="M29.1,282.3l145.9,97.6l-0.3-11.2L27,272.4C27.5,275.7,28.2,279,29.1,282.3"
				/>
		</g>
	</g>
	<polygon fill="#00AAC6" points="174.5,355.4 17.4,256 219.6,162.8 361.8,207.9 	"/>
	<polygon fill="#00818E" points="174.5,358.5 174.5,355.4 361.8,207.9 361.6,210.2 	"/>
	<polygon fill="#009DAD" points="219.6,162.8 227.1,165.2 24.1,260.2 17.4,256 	"/>
	<polygon fill="#009DAD" points="145.5,336.5 278.2,273.5 304.1,253.1 33,248.9 26.2,251.4 35.8,267.6 	"/>
	<polygon fill="#204984" points="13.3,229.7 30.9,225.9 25.8,186.3 6.1,188.6 6.1,192 6.6,202.7 8.2,214.3 11.5,225.4 	"/>
	<polygon fill="#2E5FAD" points="98,345.5 375.2,225.9 247.3,157.2 13.3,229.7 	"/>
	<g opacity="0.42">
		<g>
			<defs>
				<rect id="SVGID_82_" x="22.6" y="220.1" width="345.5" height="119"/>
			</defs>
			<clipPath id="SVGID_13_">
				<use xlink:href="#SVGID_82_"  overflow="visible"/>
			</clipPath>
			<polygon clip-path="url(#SVGID_13_)" fill="#002B49" points="22.6,226.8 102,339.2 368.1,225.9 357.8,220.1 			"/>
		</g>
	</g>
	<polygon fill="#2E5FAD" points="92.5,291.9 5.9,187.1 250.1,128.5 381.5,184.3 	"/>
	<path fill="#204984" d="M92.5,291.9v3.5L6.5,190c-0.1,12.6,1.5,25.6,6.9,39.7L98,345.5l0.2,2.5L13.1,230.9
		c-5.9-16.5-8-30.9-7.1-43.8L92.5,291.9z"/>
	<polygon fill="#204984" points="92.5,295.4 92.5,291.9 381.5,184.3 381.1,187 	"/>
	<polygon fill="#204984" points="98,345.5 98.2,348 375,227.9 375.2,225.9 	"/>
	<g>
		<defs>
			<path id="SVGID_84_" d="M22.6,226.8L104.4,333l-3.9-40.6l-8,3l-74.9-91.8C18.6,211.4,20.4,219.1,22.6,226.8"/>
		</defs>
		<clipPath id="SVGID_14_">
			<use xlink:href="#SVGID_84_"  overflow="visible"/>
		</clipPath>
		
			<linearGradient id="SVGID_15_" gradientUnits="userSpaceOnUse" x1="1019.6897" y1="-252.981" x2="1020.6345" y2="-252.981" gradientTransform="matrix(91.8926 0 0 -91.8926 -93684.3359 -22978.752)">
			<stop  offset="0" style="stop-color:#D9C8AE"/>
			<stop  offset="1" style="stop-color:#F6E7CC"/>
		</linearGradient>
		<rect x="17.6" y="203.6" clip-path="url(#SVGID_14_)" fill="url(#SVGID_15_)" width="86.8" height="129.4"/>
	</g>
	<g>
		<defs>
			<polygon id="SVGID_87_" points="100.6,292.4 104.4,333 361.6,224.8 366.1,192.6 			"/>
		</defs>
		<clipPath id="SVGID_16_">
			<use xlink:href="#SVGID_87_"  overflow="visible"/>
		</clipPath>
		
			<linearGradient id="SVGID_17_" gradientUnits="userSpaceOnUse" x1="1027.2316" y1="-248.1486" x2="1028.1764" y2="-248.1486" gradientTransform="matrix(281.125 0 0 -281.125 -288679.9375 -69497.9688)">
			<stop  offset="0" style="stop-color:#CCBCA4"/>
			<stop  offset="1" style="stop-color:#E9DBC1"/>
		</linearGradient>
		<rect x="100.6" y="192.6" clip-path="url(#SVGID_16_)" fill="url(#SVGID_17_)" width="265.6" height="140.5"/>
	</g>
	<g opacity="0.13">
		<g>
			<defs>
				<rect id="SVGID_92_" x="17.9" y="206" width="346.3" height="115.9"/>
			</defs>
			<clipPath id="SVGID_18_">
				<use xlink:href="#SVGID_92_"  overflow="visible"/>
			</clipPath>
			<path clip-path="url(#SVGID_18_)" fill="#603913" d="M19.9,216.2l83.5,105.7l259.5-106.1l1.4-9.8L102.2,309.7L17.9,206
				C18.5,209.4,19.1,212.8,19.9,216.2"/>
		</g>
	</g>
	<g opacity="0.32">
		<g>
			<defs>
				<rect id="SVGID_94_" x="5.9" y="128.5" width="255.3" height="67.5"/>
			</defs>
			<clipPath id="SVGID_19_">
				<use xlink:href="#SVGID_94_"  overflow="visible"/>
			</clipPath>
			<polygon clip-path="url(#SVGID_19_)" fill="#00223A" points="5.9,187.1 13.2,195.9 261.2,133.2 250.1,128.5 			"/>
		</g>
	</g>
	<g opacity="0.13">
		<g>
			<defs>
				<rect id="SVGID_96_" x="98.2" y="192.6" width="268" height="104.1"/>
			</defs>
			<clipPath id="SVGID_20_">
				<use xlink:href="#SVGID_96_"  overflow="visible"/>
			</clipPath>
			<polygon clip-path="url(#SVGID_20_)" fill="#603913" points="101,296.7 98.2,293.3 366.1,192.6 365.7,196 			"/>
		</g>
	</g>
	<g opacity="0.42">
		<g>
			<defs>
				<rect id="SVGID_98_" x="27" y="163.5" width="302.5" height="106.2"/>
			</defs>
			<clipPath id="SVGID_21_">
				<use xlink:href="#SVGID_98_"  overflow="visible"/>
			</clipPath>
			<polygon clip-path="url(#SVGID_21_)" fill="#002B49" points="27,181.8 35.5,222.8 74.4,269.7 245.5,233.7 329.5,203.6 
				104.4,163.5 			"/>
		</g>
	</g>
	<polygon fill="#C9A924" points="392.5,199 48.2,265.4 28.3,162.6 283.1,126.8 	"/>
	<polygon fill="#AF9115" points="47,211.2 57,259.8 382.6,197.4 377.7,191.9 116.8,164.1 	"/>
	<path fill="#877112" d="M28.3,162.6c-2.3-13.9-6.1-36.5-5.6-40.6l18.6,0.5l7.7,36.6L28.3,162.6z"/>
	<polygon fill="#C9A924" points="400,151.3 40.1,208.3 22.7,121.7 287.9,93.4 	"/>
	<polygon fill="#877112" points="40.1,208.3 40.5,212.3 399.5,154.3 400,151.3 	"/>
	<path fill="#AF9115" d="M40.5,212.3l-0.5-4l-17.4-86.7c-0.8,3.1,3.1,26.4,5.5,41l20.2,105.7l-0.3-2.9L28.3,162.6
		c-2.3-13.9-6.1-36.5-5.6-40.6L40.5,212.3z"/>
	<polygon fill="#877112" points="48.2,265.4 48.4,268.3 392.2,201.2 392.5,199 	"/>
	<g>
		<defs>
			<polygon id="SVGID_100_" points="49.2,210.9 59.9,256.4 377.1,196.1 382.6,157.1 			"/>
		</defs>
		<clipPath id="SVGID_22_">
			<use xlink:href="#SVGID_100_"  overflow="visible"/>
		</clipPath>
		
			<linearGradient id="SVGID_23_" gradientUnits="userSpaceOnUse" x1="1027.9904" y1="-247.6801" x2="1028.9351" y2="-247.6801" gradientTransform="matrix(352.918 0 0 -352.918 -362747.0938 -87204.0312)">
			<stop  offset="0" style="stop-color:#D9C8AE"/>
			<stop  offset="1" style="stop-color:#F6E7CC"/>
		</linearGradient>
		<rect x="49.2" y="157.1" clip-path="url(#SVGID_22_)" fill="url(#SVGID_23_)" width="333.4" height="99.3"/>
	</g>
	<g opacity="0.13">
		<g>
			<defs>
				<rect id="SVGID_105_" x="53.1" y="157.1" width="329.6" height="60.7"/>
			</defs>
			<clipPath id="SVGID_24_">
				<use xlink:href="#SVGID_105_"  overflow="visible"/>
			</clipPath>
			<polygon clip-path="url(#SVGID_24_)" fill="#603913" points="381.7,163.8 54.9,217.8 53.1,210.3 382.6,157.1 			"/>
		</g>
	</g>
	<g opacity="0.13">
		<g>
			<defs>
				<rect id="SVGID_107_" x="50.4" y="175.1" width="329.6" height="69.3"/>
			</defs>
			<clipPath id="SVGID_25_">
				<use xlink:href="#SVGID_107_"  overflow="visible"/>
			</clipPath>
			<polygon clip-path="url(#SVGID_25_)" fill="#603913" points="380.1,175.1 378.5,186.2 58.4,244.4 50.4,210.7 51.7,210.5 
				56.7,231.3 			"/>
		</g>
	</g>
	<polygon fill="#AF9115" points="287.9,93.4 298.7,99 24.7,131.6 22.7,121.7 	"/>
	<g opacity="0.32">
		<g>
			<defs>
				<rect id="SVGID_109_" x="28.9" y="116.4" width="358.7" height="65.4"/>
			</defs>
			<clipPath id="SVGID_26_">
				<use xlink:href="#SVGID_109_"  overflow="visible"/>
			</clipPath>
			<polygon clip-path="url(#SVGID_26_)" fill="#3A2400" points="35.1,181.8 266,172.3 387.6,153.2 382.8,142.4 332.2,116.4 
				28.9,151.7 			"/>
		</g>
	</g>
	<polygon fill="#A3C239" points="9.4,168.5 25.1,150 374.1,144.4 391.7,165.5 	"/>
	<polygon fill="#96AF2E" points="26.6,153.1 17.7,166.2 383.4,163.8 374,148.4 	"/>
	<polygon fill="#A3C239" points="0,111.7 63.3,56.9 338.1,55.7 400,109.5 	"/>
	<polygon fill="#7F9133" points="0,111.7 0.5,115.4 399.4,113.2 400,109.5 	"/>
	<polygon fill="#8CC66F" points="0.1,111.6 0,111.7 0,111.9 400,109.7 400,109.5 399.8,109.3 	"/>
	<g>
		<defs>
			<polygon id="SVGID_111_" points="17.7,115.4 25.2,163.8 376.5,161 382.8,113.3 			"/>
		</defs>
		<clipPath id="SVGID_27_">
			<use xlink:href="#SVGID_111_"  overflow="visible"/>
		</clipPath>
		
			<linearGradient id="SVGID_28_" gradientUnits="userSpaceOnUse" x1="1028.2491" y1="-247.5275" x2="1029.1938" y2="-247.5275" gradientTransform="matrix(386.4209 0 0 -386.4209 -397319.2188 -95511.2578)">
			<stop  offset="0" style="stop-color:#D9C8AE"/>
			<stop  offset="1" style="stop-color:#F6E7CC"/>
		</linearGradient>
		<rect x="17.7" y="113.3" clip-path="url(#SVGID_27_)" fill="url(#SVGID_28_)" width="365.1" height="50.5"/>
	</g>
	<g opacity="0.13">
		<g>
			<defs>
				<rect id="SVGID_116_" x="21.3" y="136.2" width="358.5" height="15.6"/>
			</defs>
			<clipPath id="SVGID_29_">
				<use xlink:href="#SVGID_116_"  overflow="visible"/>
			</clipPath>
			<polygon clip-path="url(#SVGID_29_)" fill="#603913" points="21.3,138.5 23.3,151.8 378,149.2 379.8,136.2 			"/>
		</g>
	</g>
	<g opacity="0.13">
		<g>
			<defs>
				<rect id="SVGID_118_" x="17.7" y="113.3" width="365.1" height="12"/>
			</defs>
			<clipPath id="SVGID_30_">
				<use xlink:href="#SVGID_118_"  overflow="visible"/>
			</clipPath>
			<polygon clip-path="url(#SVGID_30_)" fill="#603913" points="19.2,125.3 17.7,115.4 382.8,113.3 381.5,122.8 			"/>
		</g>
	</g>
	<polygon fill="#7F9133" points="9.4,168.5 10,171.2 391.3,168 391.7,165.5 	"/>
	<polygon fill="#8CC66F" points="9.6,168.4 9.4,168.5 9.5,168.8 391.7,165.7 391.7,165.5 391.6,165.3 	"/>
	<g opacity="0.31">
		<g>
			<defs>
				<rect id="SVGID_120_" x="57.4" y="58" width="328.1" height="53.1"/>
			</defs>
			<clipPath id="SVGID_32_">
				<use xlink:href="#SVGID_120_"  overflow="visible"/>
			</clipPath>
			<polygon clip-path="url(#SVGID_32_)" fill="#003A0A" points="57.4,62 84.5,111.1 336.5,109.7 385.5,98 345.3,71.8 62,58 			"/>
		</g>
	</g>
	<polygon fill="#822A2A" points="377.2,95.5 136.2,130 126.3,119.8 350.8,84.1 	"/>
	<polygon fill="#993333" points="353.9,86.4 370.3,95 132.6,125.8 	"/>
	<path fill="#AA3D3D" d="M133.6,131l0.2,0.2v0C133.8,131.1,133.7,131.1,133.6,131"/>
	<path fill="#AA3D3D" d="M131.7,59.6L51.1,8.3c-5.4,7.1-9.4,25.2-1.7,37l81.8,83.3C114.2,110,116.3,83.1,131.7,59.6"/>
	<path fill="#822A2A" d="M56.9,19.2l58.8,43.7c-5.6,5.5-11.3,21.9-5,38.8L56.4,47.1C53.5,38.1,52.3,27.6,56.9,19.2"/>
	<g>
		<defs>
			<polygon id="SVGID_122_" points="130.9,64.2 125.7,75.6 121.9,91.5 121.9,105.7 126.3,119.8 132.6,125.8 360.3,94 366.2,42.3 			
				"/>
		</defs>
		<clipPath id="SVGID_34_">
			<use xlink:href="#SVGID_122_"  overflow="visible"/>
		</clipPath>
		
			<linearGradient id="SVGID_36_" gradientUnits="userSpaceOnUse" x1="1026.9049" y1="-248.3939" x2="1027.8497" y2="-248.3939" gradientTransform="matrix(258.5625 0 0 -258.5625 -265397.1875 -64141.2695)">
			<stop  offset="0" style="stop-color:#D9C8AE"/>
			<stop  offset="1" style="stop-color:#F6E7CC"/>
		</linearGradient>
		<rect x="121.9" y="42.3" clip-path="url(#SVGID_34_)" fill="url(#SVGID_36_)" width="244.3" height="83.5"/>
	</g>
	<g opacity="0.13">
		<g>
			<defs>
				<rect id="SVGID_127_" x="121.9" y="67.8" width="241.4" height="44.4"/>
			</defs>
			<clipPath id="SVGID_38_">
				<use xlink:href="#SVGID_127_"  overflow="visible"/>
			</clipPath>
			<polygon clip-path="url(#SVGID_38_)" fill="#603913" points="363.3,67.8 361.7,81.5 123.9,112.2 121.9,102.5 121.9,96.1 			"/>
		</g>
	</g>
	<g opacity="0.13">
		<g>
			<defs>
				<rect id="SVGID_129_" x="123.9" y="42.3" width="242.3" height="36.5"/>
			</defs>
			<clipPath id="SVGID_40_">
				<use xlink:href="#SVGID_129_"  overflow="visible"/>
			</clipPath>
			<path clip-path="url(#SVGID_40_)" fill="#603913" d="M364.8,54l1.3-11.7L132.1,64.2c-3.3,3.5-5.9,8.6-8.2,14.6L364.8,54z"/>
		</g>
	</g>
	<polygon fill="#993333" points="218.1,0 384.6,37 131.7,59.6 51.1,8.3 	"/>
	<polygon fill="#822A2A" points="63,7.7 150.4,57.9 131.7,59.6 51.1,8.3 	"/>
	<path fill="#AA3D3D" d="M218.1,0c70.4,25.8,51.3,41.2-4.9,52.3L381.4,37L218.1,0z"/>
	<path fill="#702222" d="M384.2,40.6L132.1,64.2c-9.4,19-16.8,43.9,4.1,65.8l241-34.5l-0.3,2.7l-240.8,35.1
		c-22.2-18.5-21.2-48-4.5-73.7L384.6,37L384.2,40.6z"/>
	<polygon fill="#702222" points="136.2,130 376.2,95.4 360.9,88.5 377.2,95.5 	"/>
</g>
</svg>
