<svg id="vectorportal.com" xmlns="http://www.w3.org/2000/svg" viewBox="0 0 1245.38 314.8"><title>icon_knoop</title><path d="M726.81,210s25.39-24.75-22.67-86c-15.09,2.18-163.52,23.73-260.45-7.91C382,174.38,433.07,238.07,433.07,238.07ZM661,133.19c12.73,11.42,29.15,33.94,36.49,76.92a26.48,26.48,0,0,0-5.75.34c-8.71-49-31.15-68.8-43.68-76.28a26,26,0,0,0,12.94-1m-84.4,5a26.67,26.67,0,0,0,12.51-.11c13.87,12,31.8,35,39.77,76.6a26.55,26.55,0,0,0-5.82.23c-9.21-44.58-32.77-66.82-47.47-76.65.34,0,.68-.07,1-.07m-83.83-6.08a26.77,26.77,0,0,0,13.83,0c14.61,14.18,35.95,42.11,44.44,89.1a26.28,26.28,0,0,0-5.77.37c-9.39-48.27-36.54-76.59-52.5-89.51m-68.19,15.11a31.66,31.66,0,0,0,7.12-9.8c11.15,15.11,29,45.38,38,91.85a25.66,25.66,0,0,0-5.82.41c-9-43-27.54-69.39-39.26-82.46m191-29.56c15.34-16.26,36.59-29.67,60.26-22.13,72.86,23.19,62,110.24,107.81,162.4,27.73,31.58,59.38,52.59,104.15,53.67,46.26,1.13,123.33-36.39,117.29-131.87,0,0-76.16,5.18-104.75,16,3.65,9.07-1.18,21.34-21.85,18.17-39.72-6.09-65.21-69.36-77-90.79-23.93-43.65-55-120.54-152-119-75.29,1.18-142.18,106-129.37,112,27.3,11.29,95.38,1.58,95.38,1.58m291.49,83.89c17.67,6.57,54,18,90.42,16.43a26.11,26.11,0,0,0-3,12.73c-36.89,0-72.21-15.12-89.52-23.69a28,28,0,0,0,2.06-5.47M839.68,294.4a31.92,31.92,0,0,0-11.34-4.93,225.24,225.24,0,0,1,26.53-79.86,32.07,32.07,0,0,0,6.06,2.72,258.76,258.76,0,0,0-21.25,82.08m43.38-73.57a24.62,24.62,0,0,0,4.94-1.17c6.14,18.63,20.69,55.14,45.61,74.51a26.23,26.23,0,0,0-8.94,6.07c-24.83-21.86-37.26-59.92-41.61-79.41M824,171.27c-11.25,13.84-35.47,45.33-45.77,71.52a30.57,30.57,0,0,0-6.61-8.7,269.85,269.85,0,0,1,50.13-65.64,29.67,29.67,0,0,0,2.24,2.82m-33.63-60.35c-18.21,16.21-36.54,42.27-45.76,56.23a26.91,26.91,0,0,0-4.43-11.52c9.91-12.6,29.73-36.54,47.12-50.23a29.1,29.1,0,0,0,3.07,5.52m-44.89-66.8a31.59,31.59,0,0,0,5.26,5.78c-25,23.77-37.33,46.73-42.48,58.34a33,33,0,0,0-10.49-7,202.77,202.77,0,0,1,47.71-57.09M645.72,10.26A26.37,26.37,0,0,0,657,9.88a243.89,243.89,0,0,0,4.66,77.57,26,26,0,0,0-5.28.24C651.4,69.45,645.42,41,645.72,10.26M559,57.63a29.59,29.59,0,0,0,7.4-7.45c.45-.65.84-1.31,1.23-2,23.15,26.64,45.66,43.12,59.6,51.87a30.19,30.19,0,0,0-5.47,5.78C606.15,98.09,582.5,83.4,559,57.63m257.6,74.7c47-39.23,112.88-64.4,112.88-64.4-26.92-17.81-56.73-22.78-79.57-22.1C812,47,780.29,64.93,780.29,64.93s29.77,43.15,36.26,67.4m1-76.79A24.94,24.94,0,0,0,827,51c15,8.3,33.53,21.61,44.7,40.55a24.72,24.72,0,0,0-5.47,2.09c-12-19-33.12-31.21-48.67-38.06M745.06,205.27c-28.46,22-58.83,40.8-80.65,41.33-23.55.57-40.1-6.39-51.58-16.55l-90.5,9.9c20.65,33.24,59,66.58,115.78,76.9,35.22,6.4,85.94-.25,144.28-46.33-17.4-13.63-35.49-47-37.33-65.25M596.43,300.2a33.13,33.13,0,0,0-9.44-5.92,390.36,390.36,0,0,1,40.48-50.62,32.58,32.58,0,0,0,4.58,2.06c-9.7,11.26-25,31.09-35.62,54.48m82,13.5a25.32,25.32,0,0,0-9.51,1.57c-6.11-23-3.37-48.93-.32-65.63a25.29,25.29,0,0,0,5.69-.58c-2.37,15.6-3.64,40.88,4.14,64.63m70.86-25a25.82,25.82,0,0,0-8.75,5.69c-16-15.61-27.88-42.07-33.85-57.35a25.86,25.86,0,0,0,5.71-3.7c6.9,14.12,20.93,40.11,36.9,55.36m127.87-96.33c66.71-25.09,180.68-38.89,253.33-19.32-8.28-61.43-37.35-100.61-37.35-100.61-96.25-35.51-198.81,17.34-269.49,69.27,3.32,9.21,32.72,58.48,53.51,50.66M1021.81,64.51a26.76,26.76,0,0,0,15.7,0c23.74,23.95,48.16,58.53,75,100.28a28.47,28.47,0,0,0-7.68-1.17c-29.11-44.11-56.91-77.36-83-99.09M952.48,78.12a24.77,24.77,0,0,0,11-4.18c22.75,19.38,46.33,48.21,71.32,84.7a25.25,25.25,0,0,0-6.86,1c-26.21-36.16-52-63.38-75.5-81.5M897.7,101.52a26.11,26.11,0,0,0,8.39-5.69c18.81,17.69,38,41.77,58.42,71.27a24.81,24.81,0,0,0-4.63.73,395.37,395.37,0,0,0-62.17-66.3M845,132.13a27.29,27.29,0,0,0,7-5.6c14.58,13.87,29.48,31.58,44.92,52.55a24.41,24.41,0,0,0-4.81,2A360.69,360.69,0,0,0,845,132.13" transform="translate(-2.13 -4.11)"/><path d="M244.63,33.78,153,160.35,230.19,294.9,142,310.49l-57.77-82.1-3,85.9-79.06,3L8.21,26.17l88.56,4.94L89.93,117l58.92-90.84Z" transform="translate(-2.13 -4.11)"/><path d="M501.2,33.4,487.51,291.1l-99.58,9.12-53.21-138-8.36,140.64H240.83L247.67,33.4l95-4.56,65.76,136.83,3-129.23Z" transform="translate(-2.13 -4.11)"/><path d="M1247.51,137.06q0,16.66-5,29.54a72,72,0,0,1-13.66,22.5,82.32,82.32,0,0,1-20.35,16.32,127,127,0,0,1-25,10.91,167.35,167.35,0,0,1-27.57,6.18,224.1,224.1,0,0,1-28,2.15v80h-80q0-39.33.17-78.33t.52-78.67q.34-21,.17-41.91t.86-42.26a319.1,319.1,0,0,1,44-9.79,308.72,308.72,0,0,1,45.35-3.26,165,165,0,0,1,26.45,2.15,128.1,128.1,0,0,1,25.34,6.79A112.83,112.83,0,0,1,1213.24,71a76,76,0,0,1,29.89,38.48A81.7,81.7,0,0,1,1247.51,137.06Zm-76.27,5.84q0-11.16-6.79-17.43t-17.61-6.27a48.71,48.71,0,0,0-7.47.6q-3.86.6-7.3,1.46L1130,171.42a32.42,32.42,0,0,0,4.64.34h4.64a35.14,35.14,0,0,0,11.94-2.06,31.92,31.92,0,0,0,10.22-5.93,29.8,29.8,0,0,0,7.13-9.1A25.61,25.61,0,0,0,1171.24,142.9Z" transform="translate(-2.13 -4.11)"/></svg>