<?xml version="1.0" encoding="utf-8"?>
<!-- Generator: Adobe Illustrator 21.0.0, SVG Export Plug-In . SVG Version: 6.00 Build 0)  -->
<svg version="1.1" id="logo" xmlns="http://www.w3.org/2000/svg" xmlns:xlink="http://www.w3.org/1999/xlink" x="0px" y="0px"
	 viewBox="0 0 140.1 91.2" style="enable-background:new 0 0 140.1 91.2;" xml:space="preserve">
<style type="text/css">
	.st099{
	fill:#EEB310;
	}
	.st1{fill:#00678F;}
	.st2{fill:#F5CD78;}
</style>
<g>
	<g>
		<g>
			<g>
				<g>
					<path class="st099" d="M49.8,71c8.4,1.8,26.6,2.5,52.7-11c0,0,13.5,3,33.4,1.6l0,0c0,0-7.5,9.9-26.8,7.3c0,0-22.3,3-32.1,5.8
						C77,74.8,51.2,89.1,49.8,71L49.8,71z"/>
					<path class="st099" d="M29.8,60.3c-5.6,3-25.5,13.4-6.8-4.2c0,0-17.4,4.7-9.2-6.1c0,0-21.1-12.4-10.9-45.4l0,0
						c0,0-7.9,27.2,26.5,54.9L29.8,60.3z"/>
					<path class="st099" d="M51,22.6c0,0-7,1.6-6.3,9.1c0,0-5.3-3.2-5.3,13.9l-4.9,10.1c0,0,0.6,2.4,3.8,2.6c0,0,0.9-7.3,4.3-11.3
						c0,0-2.5-11.7,3-12.6C45.7,34.5,46.9,26.7,51,22.6L51,22.6z"/>
				</g>
				<g>
					<path class="st1" d="M24.6,84.7c-0.1,0.2-0.2,0.5-0.3,0.7c-0.2,0.5-0.5,0.9-0.8,1.4c-0.1,0.2-0.2,2.1,0,2.2c2,0.7,4,0.4,6,0.4
						c0.2,0,0.2-2.3,0-2.3c-1.7,0-3.4,0.2-5-0.1l0,0c0.9-2.6,0.6-5.6-1.9-7c0.2,0.1-0.4,2,0,2.3l0,0c0.9,0.5,1.8,1.3,2,2
						C24.7,84.4,24.6,84.6,24.6,84.7z"/>
					<path class="st1" d="M33.5,85c1.5,0.2,2.7,0.6,3.1,2.2c0.2,1,0.3,1.8,0.9,2.7c1.8,2.5,5.6,0.4,8.1,1.3c-0.1,0,0.4-2.1,0-2.3
						c-2.7-1-6.6,1.3-8.3-1.8c-0.5-0.8-0.4-1.9-0.7-2.8c-0.4-1.2-1.8-1.4-2.9-1.6C33.5,82.7,33.3,85,33.5,85L33.5,85z"/>
					<path class="st1" d="M140.1,58.9c0-0.2-0.2-2.2-0.2-2.3c-1.5,1.3-3,2.5-4.6,3.6c-6.9,1.8-13.9,1.5-20.9,0.3
						c-7.8-1.4-15.4-3.8-23.4-4.3c-7.9-0.5-15.8,1.8-23.5,3.2c-8.1,1.5-16.2,1.9-24-1.1c0.1,0-0.4,2.1,0,2.3
						c7.6,2.9,15.4,2.5,23.3,1.2c8-1.4,16-3.7,24.2-3.3c7.7,0.4,15.2,2.7,22.7,4.1c5.6,1.1,11.2,1.5,16.7,0.8
						c-0.3,0.2-0.5,0.3-0.8,0.5c-3.9,2.1-8.2,3-12.6,3.4c-4.6,0.5-9.2,0.5-13.8,1c-4.8,0.5-9.6,1.4-14.4,2.4
						c-4.4,0.9-8.8,1.9-13.1,3.2c-3.7,1.1-7.5,2.2-11.3,2.9c-3.5,0.6-7.5,0.9-10.8-0.7c-3.1-1.5-3.6-5.3-3.6-8.4
						c0-0.2-0.3-2.2-0.2-2.3c-1.3,1.4-2.5,3-3.7,4.4c-0.7,0.9-1.5,1.9-2.4,2.8l0,0c0.8-1.4,1.7-2.9,2.6-4.3c0.4-0.6,0.2-2.1,0.2-2.8
						c0-0.2-0.1-1.8-0.3-1.6c-2.7,4.4-6.6,9.2-5.4,14.6c0.4,1.6,3.7-2.4,4.1-2.8c1.6-1.8,3.1-3.9,4.8-5.6l0,0c0,2.4,0.2,4.9,1.1,7.1
						c1.4,3.5,5.1,4.4,8.6,4.5c4.1,0.1,8.2-1,12.1-2.1c4.4-1.2,8.7-2.4,13.1-3.5c5-1.2,10-2.2,15.1-2.9c5.1-0.7,10.2-1,15.3-1.3
						c4.7-0.3,9.2-1.1,13.5-3c4.2-1.9,7.9-4.9,11.4-7.8C140.2,60.9,140.1,59.4,140.1,58.9z"/>
					<path class="st1" d="M47,46.7c0.1-0.4,0.2-1.3,0.2-1.5c0.2-0.7,0.4-1.4,0.5-2.1c0.6-2.5,0.5-5.2,0.4-7.8
						c-0.1-3.4,1.2-6.6,2.7-9.5c0.2-0.4,0.2-0.9,0.2-1.4c0.3,0,0.6,0.1,0.8,0.2c-0.2-0.1,0.8-4.2,0-4.5c-4.4-1.8-6.8,5.5-8.1,8.5
						c-0.1,0.2-0.1,0.5-0.2,0.7c-3.5,1.1-3.8,5-4,8.6c-0.1,2.6-0.3,4.8-1.4,7.3c-1.3,2.9-3.1,5.5-3.9,8.6c0,0.2-0.1,0.4-0.1,0.6
						c-8.5-4.8-16-11-21.8-19c-2.8-3.9-5.1-8.1-6.9-12.5c-1.9-4.7-3.5-10.1-3-15.2C3.1,6.5,3.6,5.4,4,4.4c0.3-0.8,0.2-2,0.2-2.8
						C4.2,1.4,4-0.2,3.9,0C0.1,8.8-0.7,19,0.5,28.4c1.1,8.5,4.5,17,11.3,22.4c-0.3,0.6-0.5,1.3-0.6,2.1c-0.2,1.9-0.5,4.6,1.4,5.7
						c1.5,0.9,3.6,0.6,5.4,0.5l0,0C16.8,60,15.4,61,15,62c-0.5,1.3-0.4,3.4-0.1,4.7c0.2,0.8,0.5,1.2,1.3,1.4c1.6,0.4,3.4,0,5.1-0.6
						l0,0c-0.9,1.3-1.7,2.5-2.4,4c-0.3,0.7-0.5,3.8,0.1,4.4c1.8,1.9,4.4,3.1,6.8,4.1c2.1,0.9,5.1,2.1,7.5,1.3c0.7-0.3-0.1-4.5,0-4.5
						c-2.4,0.8-5.3-0.4-7.5-1.3c-1.7-0.7-3.5-1.5-5.1-2.6c2.1-3.2,4.9-5.9,7.7-8.5l0,0c0.5-0.4,0.9-0.8,1.3-1.2
						c0.4-0.5,0.2-1.7,0.2-2.3c0-0.2-0.2-2.2-0.2-2.3c-0.4,0.3-1.2,1-1.2,1c-1,0.7-2.1,1.2-3.1,1.7c-2.2,1-4.5,1.8-6.9,2.2
						c-0.2,0-0.5,0.1-0.7,0.1c2.2-1.8,4.7-3.2,6.5-5.5c0.3-0.4,0.3-4.5,0-4.5c-2.8,0.3-5.6,1-8.4,1c-1.2,0-2.5-0.1-3.6-0.6l0,0
						c0.4-0.6,0.9-1.2,1.4-1.7c0.4-0.5,0.6-4.1,0-4.5C1.2,39.7-1.7,22.9,2.3,9.2c-0.2,8.4,3.3,17,7.4,23.9
						c5.9,10,14.6,17.8,24.7,23.5c0,0.2,0.2,1.7,0.3,1.6c0.7-2.9,2.3-5.4,3.6-8c1.1-2.3,1.6-4.6,1.8-7.1c0.3-4.1-0.3-8.9,5-9.4
						c0.3,0,0.3-2.2,0.2-3.5c1-2.2,2.3-4.5,4.1-5.3c-0.7,1.7-1.1,3.5-1.4,5.3c-0.4,3.4,0.2,6.9-0.7,10.3c-0.8,2.9-1.2,5.7-0.9,8.7
						c0.2,1.4,0.5,2.8,0.9,4.2c0.2,0.8,0.6,1.5,0.9,2.3c0.1,0.3,0.3,0.8,0.5,1.4c0.2,0.7,0.4,2.3,0.4,2.3c0.1,0.9,0.3-0.7,0.3-0.8
						c0.1-2.6-0.1-4.9-1.1-7.3c-0.6-1.3-1-2.6-1.3-4L47,46.7z"/>
				</g>
			</g>
		</g>
	</g>
</g>
<g>
	<path class="st099" d="M23,54.1l0-0.2c-2.3,0.3-4.6,0.8-6.9,0.8c-1.2,0-2.5-0.1-3.6-0.6l0,0c0.4-0.6,0.9-1.2,1.4-1.7
		c0.4-0.5,0.6-4.1,0-4.5C1.3,39.8-1.7,22.9,2.3,9.2L2,9.2c-4,13.7-1,30.7,11.7,38.9c0.4,0.2,0.3,3.7-0.1,4.1l0,0
		c-0.4,0.6-1,1.1-1.4,1.8l0,0l0,0l0.1,0.4c1.2,0.6,2.5,0.7,3.7,0.7C18.4,54.9,20.7,54.5,23,54.1z"/>
	<polygon class="st2" points="16.1,55 16.1,55 16.1,55 	"/>
	<path class="st099" d="M18.7,63.9L18.7,63.9c2.4-0.4,4.7-1.2,6.9-2.2h0c1-0.5,2.1-1,3.1-1.7l0,0c0,0,0.2-0.2,0.5-0.4l-0.2-0.2
		c-0.3,0.2-0.5,0.4-0.5,0.4c-1,0.7-2.1,1.2-3.1,1.7c-2.2,1-4.5,1.8-6.9,2.2c-0.2,0-0.5,0.1-0.7,0.1c2.2-1.8,4.7-3.2,6.5-5.5
		c0.2-0.2,0.2-1.6,0.2-2.7l-0.3,0c0,1.2,0,2.4-0.2,2.5l0,0c-1.8,2.3-4.2,3.7-6.5,5.5l-0.1,0.3l0.1,0.2
		C18.2,63.9,18.5,63.9,18.7,63.9z"/>
	<path class="st099" d="M49.3,24.7c0,0,0,0.1-0.1,0.1l0.2,0.1c0-0.1,0-0.1,0-0.1l-0.3-0.3c-1.9,0.8-3.3,3.3-4.2,5.5l0,0.1
		c0.1,1.6,0.1,3.3,0.1,3.3h0c-5.6,0.6-5,5.7-5.2,9.6c-0.2,2.5-0.7,4.8-1.8,7l0,0c-1.1,2.2-2.3,4.3-3.2,6.6l0.2,0.1
		c0.8-2.3,2.1-4.4,3.1-6.6c1.1-2.3,1.6-4.6,1.8-7.1c0.3-4.1-0.3-8.9,5-9.4c0.3,0,0.3-2.2,0.2-3.5C46.2,27.8,47.5,25.5,49.3,24.7z"/>
	<path class="st099" d="M129.7,64.2c0.3-0.1,0.6-0.3,0.8-0.5l-0.2-0.5c-5.5,0.7-11,0.3-16.6-0.8h0c-3.8-0.7-7.6-1.7-11.5-2.5l-0.1,0.2
		c3.8,0.8,7.7,1.8,11.5,2.5c5.6,1.1,11.2,1.5,16.7,0.8c-0.3,0.2-0.5,0.3-0.8,0.5c-3.9,2.1-8.2,3-12.6,3.4c-4.6,0.5-9.2,0.5-13.8,1
		c-4.8,0.5-9.6,1.4-14.4,2.4c-4.4,0.9-8.8,1.9-13.1,3.2c-3.7,1.1-7.5,2.2-11.3,2.9c-3.5,0.6-7.5,0.9-10.8-0.7c-2-1-2.9-3-3.3-5.1
		l-0.2,0c0.4,2.1,1.3,4.2,3.5,5.2l0,0c3.3,1.6,7.4,1.3,10.9,0.7c3.9-0.7,7.6-1.8,11.3-2.9h0c4.3-1.2,8.7-2.2,13.1-3.2
		c4.8-1,9.5-1.9,14.4-2.4l0,0c4.7-0.5,9-0.6,13.8-1l0,0C121.4,67.2,125.7,66.3,129.7,64.2L129.7,64.2z"/>
</g>
</svg>
