<?xml version="1.0" encoding="utf-8"?>
<!-- Generator: Adobe Illustrator 19.0.0, SVG Export Plug-In . SVG Version: 6.00 Build 0)  -->
<svg version="1.1" id="nightsky" xmlns="http://www.w3.org/2000/svg" xmlns:xlink="http://www.w3.org/1999/xlink" x="0px" y="0px"
	 viewBox="-229.25 -896.5 1977.25 249.98" style="enable-background:new -229.25 -896.5 1977.25 249.98;" xml:space="preserve">
	 <style>
	 .st0{fill:url(#line_25_);}
	.st1{fill:#FFFFFF;}
	.st2{fill:url(#small-dark_11_);}
	.st3{fill:#FFFFFF;fill-opacity:0.3;}
	.st4{fill:#FFFFFF;fill-opacity:0.05;}
	.st5{fill:#FFFFFF;fill-opacity:0.1;}
	.st6{fill:url(#line_26_);}
	.st7{fill:url(#line_27_);}
	.st8{fill:url(#line_28_);}
	.st9{fill:url(#lline_1_);}
	.st10{fill:url(#line_29_);}
	.st11{fill:#FFFFFF;fill-opacity:0.15;}
	.st12{fill:url(#line_30_);}
	.st13{opacity:0.1;fill:#FFFFFF;enable-background:new    ;}
	.st14{fill:url(#line_31_);}
	.st15{fill:url(#line_32_);}
	.st16{fill:url(#line_33_);}
	.st17{fill:url(#line_34_);}
	.st18{fill:url(#line_35_);}
	.st19{fill:url(#line_36_);}
	.st20{fill:url(#line_37_);}
	.st21{fill:url(#line_38_);}
	.st22{fill:url(#line_39_);}
	.st23{fill:url(#line_40_);}
	 </style>
<g id="left">
	<linearGradient id="line_25_" gradientUnits="userSpaceOnUse" x1="-16.8289" y1="923.1096" x2="-17.6995" y2="922.1978" gradientTransform="matrix(49.4072 0 0 -40.5673 1176.1503 36707.0664)">
		<stop  offset="0" style="stop-color:#FFFFFF;stop-opacity:0.1"/>
		<stop  offset="1" style="stop-color:#FFFFFF;stop-opacity:0"/>
	</linearGradient>
	<path id="line_15_" class="st0" d="M320.32-719.71c8.31-6.82,16.77-13.49,24.86-20.57c0.15-0.13-0.05-0.39-0.21-0.27
		c-8.28,6.36-16.26,13.14-24.33,19.76c-8.32,6.82-16.71,13.53-24.79,20.64c-0.07,0.06,0.02,0.18,0.1,0.12
		C304.25-706.37,312.24-713.08,320.32-719.71L320.32-719.71z"/>
	<circle id="small-light_12_" class="st1" cx="-6.5" cy="-752" r="2.5"/>

	<linearGradient id="small-dark_11_" gradientUnits="userSpaceOnUse" x1="-17.83" y1="920.534" x2="-17.8396" y2="920.5242" gradientTransform="matrix(56.7796 0 0 -43.6906 1243.4984 39571.4922)">
		<stop  offset="0" style="stop-color:#FFFFFF;stop-opacity:0.1"/>
		<stop  offset="1" style="stop-color:#FFFFFF;stop-opacity:0"/>
	</linearGradient>
	<path id="small-dark_6_" class="st2" d="M230.66-647.35c-0.45,0.32-0.03,1.07,0.44,0.76"/>
	<circle id="small-dark_7_" class="st3" cx="106.5" cy="-671" r="1.5"/>
	<circle id="small-dark_8_" class="st3" cx="30.5" cy="-870" r="2.5"/>
	<g id="blink_2_">
		<circle id="small-light_11_" class="st1" cx="-224.5" cy="-849" r="2.5"/>
		<ellipse id="dark-shadow_2_" class="st4" cx="-224.52" cy="-848.73" rx="4.73" ry="5.06"/>
	</g>
	<g id="small-asterism">
		<circle id="small-light_13_" class="st1" cx="142.5" cy="-774" r="2.5"/>
		<circle id="small-dark_9_" class="st3" cx="186.5" cy="-752" r="1.5"/>
		<path id="line_17_" class="st5" d="M167.97-774.53c8.25-0.46,16.53-0.73,24.75-1.63c0.24-0.02,0.25-0.37,0-0.38
			c-8.25-0.04-16.51,0.55-24.75,0.95c-8.24,0.4-16.54,0.65-24.75,1.58c-0.29,0.03-0.3,0.46,0,0.46
			C151.47-773.46,159.74-774.08,167.97-774.53L167.97-774.53z"/>

			<linearGradient id="line_26_" gradientUnits="userSpaceOnUse" x1="-17.9013" y1="912.2365" x2="-16.9013" y2="911.2365" gradientTransform="matrix(88.226 0 0 -79.7615 1778.3951 71984.5938)">
			<stop  offset="0" style="stop-color:#FFFFFF;stop-opacity:0.1"/>
			<stop  offset="1" style="stop-color:#FFFFFF;stop-opacity:0"/>
		</linearGradient>
		<path id="line_16_" class="st6" d="M242.57-736.51c14.64,13.25,29.4,26.44,44.5,39.16c0.27,0.22,0.65-0.15,0.39-0.39
			c-14.86-13.03-29.78-25.97-44.47-39.2c-14.69-13.22-28.97-26.9-43.66-40.11C213.16-762.96,227.94-749.75,242.57-736.51
			L242.57-736.51z"/>

			<linearGradient id="line_27_" gradientUnits="userSpaceOnUse" x1="-16.8585" y1="924.6598" x2="-15.8585" y2="925.5718" gradientTransform="matrix(7.6503 0 0 -36.4112 327.2067 32881.5195)">
			<stop  offset="0" style="stop-color:#FFFFFF;stop-opacity:0.1"/>
			<stop  offset="1" style="stop-color:#FFFFFF;stop-opacity:0"/>
		</linearGradient>
		<path id="line_18_" class="st7" d="M206.15-821.08c0.06-0.41-0.53-0.6-0.64-0.18c-3.07,11.82-4.85,24.01-7,36.02
			c-0.03,0.16,0.21,0.22,0.24,0.07C201.37-797.08,204.43-809.01,206.15-821.08L206.15-821.08z"/>

			<linearGradient id="line_28_" gradientUnits="userSpaceOnUse" x1="-16.6101" y1="951.8442" x2="-15.6101" y2="952.8442" gradientTransform="matrix(6.4764 0 0 -17.2921 295.3101 15704.8682)">
			<stop  offset="0" style="stop-color:#FFFFFF;stop-opacity:0.1"/>
			<stop  offset="1" style="stop-color:#FFFFFF;stop-opacity:0"/>
		</linearGradient>
		<path id="line_19_" class="st8" d="M194.21-771.71c0.04-0.14-0.16-0.18-0.21-0.06c-2.29,5.64-4.53,11.24-6.26,17.09
			c-0.03,0.11,0.14,0.18,0.19,0.08C190.39-760.19,192.31-765.92,194.21-771.71L194.21-771.71z"/>
		<circle id="small-light_14_" class="st1" cx="197.5" cy="-778" r="1.5"/>
	</g>
	<g id="medium-asterism">
		<path id="line_24_" class="st5" d="M-96.47-836.43c12.54,0.93,25.06,2.02,37.59,3.09c0.74,0.06,0.73-1.08,0-1.15"/>
		<path id="line_22_" class="st5" d="M33.09-751.26c-12.38-12.31-24.64-24.71-36.55-37.48c-5.84-6.27-11.61-12.6-17.31-19
			c-5.87-6.59-11.37-13.76-17.63-19.97c-0.09-0.09-0.27,0.03-0.19,0.15c4.92,6.94,11.05,13.25,16.68,19.62h0
			c5.78,6.54,11.64,13.01,17.57,19.41c11.97,12.91,24.19,25.63,36.85,37.85"/>
		<path id="line_20_" class="st5" d="M-50.69-825.34c-18.6,24.35-44.82,59.49-80.39,103.32c-7.56,9.31-15.44,18.42-22.62,28.02
			c-0.17,0.22,0.2,0.5,0.38,0.3c7.44-8.07,14.25-16.77,21.17-25.28l0,0c6.84-8.41,13.64-16.85,20.4-25.33
			c14.37-18.03,27.57-34.99,39.81-51.01c7.46-9.77,14.96-19.53,22.19-29.47"/>
		<path id="line_23_" class="st5" d="M-20.72-861.53c0.14-0.13-0.07-0.32-0.21-0.2c-6.39,5.37-12.56,10.97-18.74,16.58
			c-0.09,0.08,0.04,0.22,0.14,0.14C-33.18-850.44-26.85-855.86-20.72-861.53L-20.72-861.53z"/>

			<linearGradient id="lline_1_" gradientUnits="userSpaceOnUse" x1="-40.2309" y1="898.0352" x2="-41.2987" y2="896.9474" gradientTransform="matrix(-14.1761 54.9814 42.3069 10.9082 -38714.7383 -8264.1387)">
			<stop  offset="0" style="stop-color:#FFFFFF;stop-opacity:0.1"/>
			<stop  offset="1" style="stop-color:#FFFFFF;stop-opacity:0"/>
		</linearGradient>
		<path id="lline" class="st9" d="M-157.3-692.91c-4.61-10.82-9.72-21.43-14.31-32.26l0,0c-4.59-10.85-8.87-21.82-13.12-32.81"/>

			<linearGradient id="line_29_" gradientUnits="userSpaceOnUse" x1="-40.2184" y1="898.0197" x2="-41.2891" y2="896.9288" gradientTransform="matrix(-14.1761 54.9814 42.3069 10.9082 -38714.7383 -8264.1387)">
			<stop  offset="0" style="stop-color:#FFFFFF;stop-opacity:0.1"/>
			<stop  offset="1" style="stop-color:#FFFFFF;stop-opacity:0"/>
		</linearGradient>
		<path id="line_21_" class="st10" d="M-185.57-757.74c4.02,11.23,8.49,22.31,13.17,33.29c4.55,10.69,9.12,21.5,14.58,31.77"/>
		<circle id="small-dark_10_" class="st3" cx="-178.75" cy="-741.75" r="1.5"/>
		<g id="blink_3_">
			<ellipse id="small-light_15_" class="st1" cx="-155.45" cy="-691.57" rx="3.03" ry="3.09"/>
			<circle id="dark-shadow_3_" class="st4" cx="-155.6" cy="-691.48" r="6.31"/>
			<ellipse id="light-shadow_1_" class="st11" cx="-155.47" cy="-691.55" rx="3.85" ry="3.58"/>
		</g>
		<g id="blink_4_">
			<circle id="dark-shadow_4_" class="st4" cx="-47" cy="-835.5" r="16"/>
			<circle id="light-shadow_2_" class="st11" cx="-46.5" cy="-835" r="10.5"/>
			<circle id="small-light_16_" class="st1" cx="-46.5" cy="-835" r="2.5"/>
		</g>
	</g>
</g>
<g id="middle">
	<g id="large-asterism">
		<linearGradient id="line_30_" gradientUnits="userSpaceOnUse" x1="-17.3229" y1="945.7302" x2="-16.7285" y2="945.1168" gradientTransform="matrix(18.2292 0 0 -19.9649 1264.7043 18125.2539)">
			<stop  offset="0" style="stop-color:#FFFFFF;stop-opacity:0.1"/>
			<stop  offset="1" style="stop-color:#FFFFFF;stop-opacity:0"/>
		</linearGradient>
		<path id="line_10_" class="st12" d="M962.99-739.81c0.43,0.46,1.1-0.22,0.68-0.69c-5.69-6.43-11.33-13.21-17.62-19.06
			c-0.22-0.2-0.63,0.07-0.43,0.33C950.88-752.39,957.11-746.1,962.99-739.81L962.99-739.81z"/>
		<path id="line_14_" class="st5" d="M887.28-876.53c0.14-0.13-0.07-0.32-0.21-0.2c-6.39,5.37-12.56,10.97-18.74,16.58
			c-0.09,0.08,0.04,0.22,0.14,0.14C874.82-865.44,881.15-870.86,887.28-876.53L887.28-876.53z"/>
		<path id="lines_1_" class="st5" d="M745.14-855.34c22.15,0.96,44.28,2.27,66.39,3.92c12.54,0.93,25.06,2.02,37.59,3.09
			c0.74,0.06,0.73-1.08,0-1.15c-44.1-4.37-88.45-6.84-132.75-8.15c-12.56-0.37-25.15-0.84-37.71-0.48c-0.4,0.01-0.4,0.6,0,0.62
			C700.79-856.31,722.99-856.3,745.14-855.34L745.14-855.34z M886.09-822.95c5.78,6.54,11.64,13.01,17.57,19.41
			c11.97,12.91,24.19,25.63,36.85,37.85c0.37,0.36,0.94-0.2,0.57-0.57c-12.38-12.31-24.64-24.71-36.55-37.48
			c-5.84-6.27-11.61-12.6-17.31-19c-5.87-6.59-11.37-13.76-17.63-19.97c-0.09-0.09-0.27,0.03-0.19,0.15
			C874.33-835.63,880.46-829.32,886.09-822.95L886.09-822.95z M834.71-678.35c8.74-6.42,17.44-12.88,26.11-19.39
			c17.25-12.95,34.37-26.07,51.35-39.36c9.68-7.58,19.39-15.14,28.89-22.94c0.55-0.45-0.23-1.2-0.77-0.77
			c-34.37,26.92-68.63,53.89-103.78,79.79c-9.65,7.11-19.58,13.95-28.94,21.44c-0.22,0.17,0.06,0.54,0.3,0.39
			C817.09-665.14,825.86-671.85,834.71-678.35L834.71-678.35z M706.52-801.75c0.11,0.18,0.38,0.02,0.28-0.17
			c-8.89-16.75-18.49-33.09-27.78-49.62c-0.03-0.05-0.11-0.01-0.08,0.05C688.12-834.89,696.95-818.12,706.52-801.75L706.52-801.75z"
			/>
		<path id="lines" class="st5" d="M774.18-714.59c-0.15-0.24-0.53-0.02-0.38,0.23c9.62,16.56,19.38,33.06,29.2,49.5
			c0.04,0.07,0.15,0.01,0.11-0.06C793.85-681.68,784.47-698.44,774.18-714.59L774.18-714.59z M821.61-802.66
			c-0.31,0.47,0.42,0.88,0.74,0.44c8.79-12.13,18.31-23.38,28.96-33.94c0.13-0.13-0.06-0.31-0.19-0.19
			C839.95-826.55,829.81-815.07,821.61-802.66L821.61-802.66z M728.43-894.89c0.25-0.17,0.02-0.57-0.24-0.41
			c-16.78,10.85-33.37,21.96-49.82,33.29c-0.09,0.07-0.01,0.22,0.09,0.16C695.28-872.61,711.94-883.61,728.43-894.89L728.43-894.89z
			"/>
		<path id="line_13_" class="st13" d="M619.06-871.26c-0.17-0.18-0.41,0.08-0.27,0.27c6.22,7.78,12.71,15.34,18.79,23.22
			c0.04,0.06,0.14,0.01,0.09-0.05C631.79-855.88,625.8-863.89,619.06-871.26z"/>
		<path id="line_11_" class="st5" d="M669.79-854.58c0.29-0.16,0.04-0.57-0.26-0.44c-8.82,3.84-17.64,8.23-25.99,12.99
			c-0.05,0.03-0.02,0.11,0.04,0.09C652.47-845.65,661.35-849.94,669.79-854.58L669.79-854.58z"/>

		<linearGradient id="line_31_" gradientUnits="userSpaceOnUse" x1="-17.2824" y1="1274.2963" x2="-17.9253" y2="1274.2963" gradientTransform="matrix(120.4558 0 0 -2.3984 2672.2041 2215.3643)">
			<stop  offset="0" style="stop-color:#FFFFFF;stop-opacity:0.1"/>
			<stop  offset="1" style="stop-color:#FFFFFF;stop-opacity:0"/>
		</linearGradient>
		<path id="line_12_" class="st14" d="M573.16-840.02c19.98,0.26,40.03,0.67,60-0.03c0.4-0.01,0.4-0.61,0-0.62
			c-19.99-0.47-40.01-0.18-60-0.42c-19.97-0.23-40.02-1.23-59.99-0.92c-0.23,0-0.22,0.34,0,0.35
			C533.07-840.15,553.21-840.28,573.16-840.02L573.16-840.02z"/>
		<path id="small-light_7_" class="st1" d="M944.5-761.5c0.83,0,1.5-0.67,1.5-1.5s-0.67-1.5-1.5-1.5s-1.5,0.67-1.5,1.5
			S943.67-761.5,944.5-761.5z"/>
		<circle id="small-light_9_" class="st1" cx="642.5" cy="-841" r="1.5"/>
		<circle id="small-light_10_" class="st1" cx="675.5" cy="-857" r="1.5"/>
		<g id="blink_1_">
			<circle id="dark-shadow_1_" class="st4" cx="861" cy="-850.5" r="16"/>
			<circle id="light-shadow" class="st11" cx="861.5" cy="-850" r="10.5"/>
			<circle id="small-light_8_" class="st1" cx="861.5" cy="-850" r="2.5"/>
		</g>
	</g>
	<g id="small-asterism">

			<linearGradient id="line_32_" gradientUnits="userSpaceOnUse" x1="-34.3611" y1="916.8169" x2="-33.5172" y2="915.9824" gradientTransform="matrix(19.628 25.9481 29.6611 -22.4366 -26077.4297 20727.1777)">
			<stop  offset="0" style="stop-color:#FFFFFF;stop-opacity:0.1"/>
			<stop  offset="1" style="stop-color:#FFFFFF;stop-opacity:0"/>
		</linearGradient>
		<path id="line_9_" class="st15" d="M442.11-734.67c-2.9,16.07-6.37,31.97-10.21,47.84"/>

			<linearGradient id="line_33_" gradientUnits="userSpaceOnUse" x1="-14.6155" y1="925.4265" x2="-13.5442" y2="924.3672" gradientTransform="matrix(32.5355 0 0 -37.1911 929.1118 33671.6523)">
			<stop  offset="0" style="stop-color:#FFFFFF;stop-opacity:0.1"/>
			<stop  offset="1" style="stop-color:#FFFFFF;stop-opacity:0"/>
		</linearGradient>
		<path id="line_8_" class="st16" d="M500.67-706.5c-9.96-12.91-41.59-21-53.1-32.54"/>

			<linearGradient id="line_34_" gradientUnits="userSpaceOnUse" x1="-14.2127" y1="925.8194" x2="-13.9715" y2="925.5809" gradientTransform="matrix(32.5355 0 0 -37.1911 929.1118 33671.6523)">
			<stop  offset="0" style="stop-color:#FFFFFF;stop-opacity:0.1"/>
			<stop  offset="1" style="stop-color:#FFFFFF;stop-opacity:0"/>
		</linearGradient>
		<path id="line_7_" class="st17" d="M488.27-764.41c-16.14,8.03-16.14,7.91-33.89,18.03"/>
		<circle id="small-light_6_" class="st1" cx="442" cy="-742.75" r="2.5"/>

			<linearGradient id="line_35_" gradientUnits="userSpaceOnUse" x1="-16.6022" y1="884.9547" x2="-15.7563" y2="884.1183" gradientTransform="matrix(-32.5294 0.6317 0.7221 37.1841 -742.874 -33640.5313)">
			<stop  offset="0" style="stop-color:#FFFFFF;stop-opacity:0.1"/>
			<stop  offset="1" style="stop-color:#FFFFFF;stop-opacity:0"/>
		</linearGradient>
		<path id="line_6_" class="st18" d="M403.34-781.1c10.21,12.71,21.36,24.77,33.1,36.08"/>
	</g>
	<circle id="small-light_5_" class="st3" cx="1025.5" cy="-804" r="2.5"/>
	<circle id="small-dark_3_" class="st3" cx="647.5" cy="-759" r="1.5"/>
	<circle id="small-dark_4_" class="st3" cx="672.5" cy="-781" r="1.5"/>
	<path id="small-dark_5_" class="st3" d="M367.5-844c1.38,0,2.5,1.12,2.5,2.5s-1.12,2.5-2.5,2.5s-2.5-1.12-2.5-2.5
		S366.12-844,367.5-844"/>
</g>
<g id="right">
	<g id="small-asterism">
		<circle id="small-dark_2_" class="st3" cx="1249.5" cy="-853" r="2.5"/>

			<linearGradient id="line_36_" gradientUnits="userSpaceOnUse" x1="-54.9474" y1="920.8682" x2="-54.1058" y2="920.036" gradientTransform="matrix(-3.6595 32.329 36.9551 4.1832 -32994.9102 -2923.0908)">
			<stop  offset="0" style="stop-color:#FFFFFF;stop-opacity:0.1"/>
			<stop  offset="1" style="stop-color:#FFFFFF;stop-opacity:0"/>
		</linearGradient>
		<path id="line_2_" class="st19" d="M1195.58-821.44c-0.3,0.16,0.03,0.63,0.34,0.47c15.33-2.04,28.92-15.84,42.38-24.86
			c0.06-0.04-0.01-0.12-0.08-0.08C1224.31-837.35,1210.08-829.26,1195.58-821.44z"/>

			<linearGradient id="line_37_" gradientUnits="userSpaceOnUse" x1="1.2779" y1="926.4351" x2="0.2796" y2="925.4179" gradientTransform="matrix(56.7796 0 0 -43.6906 1243.4984 39571.4922)">
			<stop  offset="0" style="stop-color:#FFFFFF;stop-opacity:0.1"/>
			<stop  offset="1" style="stop-color:#FFFFFF;stop-opacity:0"/>
		</linearGradient>
		<path id="line_1_" class="st20" d="M1306-896.5c-9.33,7.17-14.8,11.89-24.15,19.03h0c-9.36,7.15-18.91,14.04-28.49,20.9"/>

			<linearGradient id="line_38_" gradientUnits="userSpaceOnUse" x1="-8.5994" y1="933.3141" x2="-9.6701" y2="932.2233" gradientTransform="matrix(50.8873 25.1874 19.3811 -39.1566 -16311.9492 35891.793)">
			<stop  offset="0" style="stop-color:#FFFFFF;stop-opacity:0.1"/>
			<stop  offset="1" style="stop-color:#FFFFFF;stop-opacity:0"/>
		</linearGradient>
		<path id="line" class="st21" d="M1255.78-853.56c11.82-1.63,23.58-3.72,35.28-6.03c11.4-2.26,22.92-4.5,34.09-7.73"/>
	</g>
	<g id="medium-asterism">
		<path id="line_5_" class="st5" d="M1549.25-716.5c-11.42-12.33-28.58-30.33-44.9-45.75"/>

			<linearGradient id="line_39_" gradientUnits="userSpaceOnUse" x1="-55.9402" y1="894.5659" x2="-55.0943" y2="893.7295" gradientTransform="matrix(-76.607 46.0724 35.8719 59.6461 -34785.5 -51633.5117)">
			<stop  offset="0" style="stop-color:#FFFFFF;stop-opacity:0.1"/>
			<stop  offset="1" style="stop-color:#FFFFFF;stop-opacity:0"/>
		</linearGradient>
		<path id="line_3_" class="st22" d="M1478.28-867.18c35.91,6.6,73.44,10.82,111.68,13.02"/>

			<linearGradient id="line_40_" gradientUnits="userSpaceOnUse" x1="-16.663" y1="942.4258" x2="-14.836" y2="940.6194" gradientTransform="matrix(19.628 25.9481 29.6611 -22.4366 -26077.4297 20727.1777)">
			<stop  offset="0" style="stop-color:#FFFFFF;stop-opacity:0.1"/>
			<stop  offset="1" style="stop-color:#FFFFFF;stop-opacity:0"/>
		</linearGradient>
		<path id="line_4_" class="st23" d="M1592.59-847.17c-28.74,23.42-88.54,78.11-108.34,97.92"/>
		<g id="blink">
			<circle id="small-light_2_" class="st1" cx="1500.85" cy="-765.5" r="2.5"/>
			<circle id="dark-shadow" class="st11" cx="1501" cy="-765.6" r="3.15"/>
		</g>
		<circle id="small-light_3_" class="st1" cx="1557.5" cy="-703" r="2.5"/>
		<circle id="small-light_4_" class="st1" cx="1596.49" cy="-853.24" r="2.5"/>
		<circle id="small_dark" class="st3" cx="1485.5" cy="-866" r="2.5"/>
	</g>
	<path id="small-dark_1_" class="st3" d="M1337.5-731c1.38,0,2.5,1.12,2.5,2.5s-1.12,2.5-2.5,2.5s-2.5-1.12-2.5-2.5
		S1336.12-731,1337.5-731"/>
	<circle id="small-dark" class="st3" cx="1672.5" cy="-739" r="1.5"/>
	<circle id="small-light_1_" class="st1" cx="1168.5" cy="-752" r="2.5"/>
	<circle id="small-light" class="st1" cx="1745.5" cy="-883" r="2.5"/>
</g>
</svg>
