<?xml version="1.0" encoding="utf-8"?>
<!-- Generator: Adobe Illustrator 21.0.0, SVG Export Plug-In . SVG Version: 6.00 Build 0)  -->
<svg version="1.1" id="Layer_1" xmlns="http://www.w3.org/2000/svg" xmlns:xlink="http://www.w3.org/1999/xlink" x="0px" y="0px"
	 viewBox="0 0 218.1 80" style="enable-background:new 0 0 218.1 80;" xml:space="preserve">
<style type="text/css">
	.st0{fill:#FFFFFF;}
</style>
<g>
	<g>
		<path class="st0" d="M58.4,0.5c-1.1,0-2,0.5-2.6,1.4c-0.2,0.4-0.4,0.9-0.4,1.5v29.3c0,2.6-0.8,4.8-2.5,6.6c-1.6,1.8-3.6,2.7-6,2.7
			v-0.4c1.5-0.5,2.8-1.7,3.9-3.4c1.1-1.8,1.6-3.6,1.6-5.6V3.4c0-0.8-0.3-1.5-0.9-2.1c-0.6-0.6-1.3-0.9-2.1-0.9h-0.6V0H59v0.5H58.4z"
			/>
		<path class="st0" d="M72.7,5.9c2.4-1.2,5-1.8,7.9-1.8c2.9,0,5.5,0.6,7.9,1.8c2.4,1.2,4.3,3,5.7,5.2c1.4,2.2,2.1,4.8,2.1,7.6
			c0,2.8-0.7,5.4-2.1,7.6c-1.4,2.2-3.3,4-5.7,5.2c-2.4,1.2-4.9,1.8-7.4,1.8c-2.5,0-4.7-0.4-6.7-1.1c-1.9-0.7-3.6-1.7-5-3
			c-1.4-1.3-2.5-2.8-3.4-4.7c-0.8-1.8-1.2-4-1.2-6.5c0-2.5,0.7-4.8,2.1-7.1C68.4,8.8,70.3,7.1,72.7,5.9z M71.8,28.2
			c2.3,2.5,5.3,3.7,8.8,3.7c3.5,0,6.4-1.2,8.8-3.7c2.4-2.5,3.5-5.7,3.5-9.5c0-3.9-1.2-7.1-3.5-9.5C87,6.7,84,5.4,80.6,5.4
			c-3.5,0-6.4,1.2-8.8,3.7c-2.3,2.5-3.5,5.7-3.5,9.5C68.3,22.6,69.5,25.7,71.8,28.2z"/>
		<path class="st0" d="M123.1,32.2c0.7,0,1.3-0.2,1.9-0.7c0.5-0.5,0.8-1.1,0.8-1.8V19.6h-17.2v10.2c0,0.7,0.3,1.3,0.8,1.8
			c0.5,0.5,1.2,0.7,1.9,0.7h0.6v0.5h-9.5v-0.5h0.6c0.7,0,1.4-0.2,1.9-0.7c0.5-0.5,0.8-1.1,0.8-1.8v-22c0-0.7-0.3-1.3-0.8-1.8
			c-0.5-0.5-1.2-0.7-1.9-0.7h-0.6V4.7h9.5v0.5h-0.6c-0.7,0-1.3,0.2-1.9,0.7c-0.5,0.5-0.8,1.1-0.8,1.8v10.5h17.2V7.7
			c0-0.7-0.2-1.2-0.6-1.6c-0.7-0.6-1.4-0.9-2.1-0.9h-0.6V4.7h9.5v0.5h-0.6c-0.7,0-1.3,0.2-1.9,0.7c-0.5,0.5-0.8,1-0.8,1.7v22.2
			c0,0.7,0.2,1.2,0.6,1.5c0.7,0.6,1.4,0.9,2.1,0.9h0.6v0.5h-9.5v-0.5H123.1z"/>
		<path class="st0" d="M170.4,5.1c-0.7,0-1.3,0.2-1.8,0.7c-0.5,0.5-0.8,1-0.8,1.7v19.9c0,1.8,0.1,3.5,0.3,5.1l0.1,0.8h-0.4l-24.3-23
			v19.5c0,0.7,0.2,1.3,0.7,1.7c0.5,0.5,1.1,0.7,1.8,0.7h0.8v0.5h-8.8v-0.5h0.8c0.7,0,1.3-0.2,1.8-0.7c0.5-0.5,0.7-1,0.7-1.7v-20
			c0-1.9-0.1-3.6-0.3-5.1L141,4l0.5,0l24.2,22.8V7.5c-0.1-0.7-0.3-1.2-0.8-1.7c-0.5-0.5-1.1-0.7-1.8-0.7h-0.8V4.7h8.8v0.5H170.4z"/>
	</g>
	<g>
		<path class="st0" d="M4.6,75.3C1.5,72.2,0,68.1,0,63c0-5.1,1.5-9.2,4.6-12.3c3.1-3.1,7.1-4.7,12.1-4.7c4.3,0,8.1,1.1,11.3,3.2
			l0.9,6.6h-0.4c-0.7-2.7-2.1-4.7-4.1-6.2c-2.1-1.4-4.6-2.2-7.7-2.2c-4,0-7.1,1.4-9.6,4.3C4.7,54.6,3.5,58.3,3.5,63
			s1.2,8.4,3.7,11.3c2.4,2.8,5.6,4.3,9.6,4.3c2,0,3.9-0.4,5.8-1.1c1.8-0.7,3.4-1.7,4.8-3v-8.3c0-0.7-0.2-1.2-0.6-1.6
			c-0.4-0.4-1-0.5-1.8-0.5h-0.7v-0.5h9.1v0.5h-0.7c-0.8,0-1.4,0.2-1.8,0.5c-0.4,0.4-0.6,0.9-0.6,1.6V74c-0.8,1.1-1.8,2-2.9,2.8
			c-1.1,0.8-2.6,1.6-4.5,2.2c-1.9,0.6-3.9,1-6.1,1C11.8,80,7.7,78.4,4.6,75.3z"/>
		<path class="st0" d="M47.1,52.8h-2.5v23.6c0,1,0.5,1.7,1.3,2.2c0.4,0.2,0.9,0.3,1.4,0.3h0.6l0,0.5h-9.6v-0.5h0.7
			c0.7,0,1.3-0.2,1.8-0.7c0.5-0.5,0.8-1.1,0.8-1.8V54.2c0-0.7-0.3-1.3-0.8-1.7s-1.1-0.7-1.8-0.7h-0.7v-0.5h11.7c2.9,0,5.2,0.7,6.9,2
			c1.7,1.3,2.5,3.1,2.5,5.3c0,2.2-0.7,4-2.1,5.5c-1.4,1.5-3.1,2.3-5.2,2.5c1,0.4,2.2,1.6,3.6,3.6c0,0,0.5,0.7,1.6,2.1
			c1.1,1.4,2,2.4,2.7,3.2c0.7,0.8,1.2,1.3,1.7,1.8c1.2,1.1,2.5,1.6,4,1.6v0.5h-1.4c-2.5,0-4.4-0.5-5.8-1.4c-1.1-0.7-2-1.6-2.9-2.7
			c-0.2-0.2-1-1.3-2.4-3.3c-1.4-1.9-2.1-3-2.2-3.1c-1.7-2.1-3.3-3.1-4.7-3.1v-0.5c3.6,0,5.8-0.2,6.6-0.6c1-0.5,1.7-1.1,2.1-1.7
			c0.8-1.2,1.2-2.6,1.2-4.1c0-1.9-0.6-3.4-1.7-4.4c-1.1-1-2.6-1.6-4.5-1.7C49.2,52.8,48.2,52.8,47.1,52.8z"/>
		<path class="st0" d="M70.2,78.9c0.8,0,1.6-0.2,2.2-0.7c0.6-0.5,0.9-1.1,0.9-1.8v-22c0-0.7-0.3-1.3-0.9-1.8
			c-0.6-0.5-1.4-0.7-2.2-0.7h-0.6v-0.5h10.5v0.5h-0.6c-0.8,0-1.6,0.2-2.2,0.7s-0.9,1-1,1.7v22.2c0,0.7,0.4,1.3,1,1.8
			c0.6,0.5,1.4,0.7,2.2,0.7h0.6l0,0.5H69.5v-0.5H70.2z"/>
		<path class="st0" d="M87.2,77.8c-0.1-0.4-0.1-1.1-0.1-2.3c0-1.2,0.2-2.3,0.6-3.5h0.6c0,0.3,0,0.6,0,0.8c0,1.7,0.6,3.1,1.7,4.1
			c1.1,1.1,2.6,1.6,4.6,1.6c2.1,0,3.7-0.5,4.8-1.4c1.2-0.9,1.7-2.2,1.7-3.7c0-1.5-0.6-2.8-1.7-3.8L90,62.5c-1.5-1.3-2.2-3-2.2-5.1
			c0-1.2,0.3-2.3,1-3.4c0.7-1,1.6-1.8,2.8-2.5c1.2-0.6,2.6-0.9,4.2-0.9c1.6,0,3,0.1,4.3,0.4h1.5l0.1,5.1h-0.5c0-1.3-0.5-2.3-1.4-3
			c-0.9-0.7-2.2-1.1-3.9-1.1c-1.7,0-3.1,0.4-4.2,1.3c-1.1,0.9-1.6,2-1.6,3.3c0,1.4,0.6,2.5,1.8,3.5l9.4,7.3c1.4,1.2,2.1,2.8,2.1,4.9
			c0,2.1-0.8,3.9-2.4,5.4c-1.6,1.5-3.6,2.2-5.9,2.2c-1.5,0-3-0.2-4.6-0.6C89.2,79.1,88,78.5,87.2,77.8z"/>
		<path class="st0" d="M131.3,78.9c0.7,0,1.3-0.2,1.9-0.7c0.5-0.5,0.8-1.1,0.8-1.8V66.2h-17.2v10.2c0,0.7,0.3,1.3,0.8,1.8
			c0.5,0.5,1.2,0.7,1.9,0.7h0.6v0.5h-9.5v-0.5h0.6c0.7,0,1.4-0.2,1.9-0.7c0.5-0.5,0.8-1.1,0.8-1.8v-22c0-0.7-0.3-1.3-0.8-1.8
			c-0.5-0.5-1.2-0.7-1.9-0.7h-0.6v-0.5h9.5v0.5h-0.6c-0.7,0-1.3,0.2-1.9,0.7c-0.5,0.5-0.8,1.1-0.8,1.8v10.5H134V54.3
			c0-0.7-0.2-1.2-0.6-1.6c-0.7-0.6-1.4-0.9-2.1-0.9h-0.6v-0.5h9.5v0.5h-0.6c-0.7,0-1.3,0.2-1.9,0.7c-0.5,0.5-0.8,1-0.8,1.7v22.2
			c0,0.7,0.2,1.2,0.6,1.5c0.7,0.6,1.4,0.9,2.1,0.9h0.6v0.5h-9.5v-0.5H131.3z"/>
		<path class="st0" d="M175.4,78.9h0.4v0.5h-9.6v-0.5h0.4c0.6,0,1-0.2,1.4-0.6c0.3-0.4,0.5-0.8,0.5-1.1c0-0.4-0.1-0.7-0.2-1.1
			l-2.6-6.2h-11.8l-2.6,6.1c-0.2,0.4-0.2,0.8-0.2,1.1c0,0.4,0.2,0.7,0.5,1.2c0.3,0.4,0.8,0.6,1.4,0.6h0.4v0.5h-8.9v-0.5h0.4
			c0.7,0,1.3-0.2,2-0.7c0.7-0.5,1.2-1.1,1.7-2c6.8-14.6,10.4-22.2,10.6-22.9c0.5-1.3,0.8-2.2,0.8-2.6h0.4l11.5,25.5
			C172.8,78,174,78.9,175.4,78.9z M154.5,68.5h10.6l-5.2-12.8L154.5,68.5z"/>
		<path class="st0" d="M217.4,78.9h0.7v0.5h-9.7v-0.4h0.7c0.5,0,0.9-0.2,1.2-0.5c0.4-0.4,0.5-0.8,0.4-1.3l-2.4-19.2l-8.8,17.4
			c-0.9,1.9-1.4,3.5-1.6,4.8h-0.5l-11.2-21.7l-2.1,18.8c-0.1,0.5,0.1,0.9,0.4,1.3c0.4,0.4,0.8,0.6,1.3,0.6h0.7v0.4h-8.6v-0.5h0.7
			c1.1,0,2-0.4,2.6-1.2c0.3-0.4,0.5-0.9,0.6-1.4l3.6-25.5h0.5l12.3,23.7L210,50.7h0.4l3.8,25.6c0.1,0.8,0.5,1.4,1.1,1.9
			C215.9,78.6,216.6,78.9,217.4,78.9z"/>
	</g>
</g>
</svg>
