<?xml version="1.0" encoding="utf-8"?>
<!-- Generator: Adobe Illustrator 21.0.0, SVG Export Plug-In . SVG Version: 6.00 Build 0)  -->
<svg version="1.1" id="Layer_1" xmlns="http://www.w3.org/2000/svg" xmlns:xlink="http://www.w3.org/1999/xlink" x="0px" y="0px"
	 viewBox="0 0 169.6 82.2" style="enable-background:new 0 0 169.6 82.2;" xml:space="preserve">
	 <style> .icon__sem {fill: #ffffff} </style>
<g class="icon__sem">
	<path d="M31.5,48.8c0-2-0.7-3.6-2.1-4.6c-1.4-1.1-4-2.2-7.7-3.4c-3.7-1.2-6.6-2.4-8.8-3.5C7,34,4.1,29.7,4.1,24.3
		c0-2.8,0.8-5.3,2.4-7.5c1.6-2.2,3.8-3.9,6.8-5.1c3-1.2,6.3-1.9,10-1.9c3.7,0,7,0.7,9.9,2c2.9,1.3,5.1,3.2,6.7,5.7
		c1.6,2.4,2.4,5.2,2.4,8.3H31.6c0-2.4-0.7-4.2-2.2-5.5c-1.5-1.3-3.6-2-6.3-2c-2.6,0-4.6,0.6-6.1,1.7c-1.4,1.1-2.2,2.6-2.2,4.4
		c0,1.7,0.8,3.1,2.5,4.2s4.2,2.2,7.5,3.2c6.1,1.8,10.5,4.1,13.3,6.8c2.8,2.7,4.2,6.1,4.2,10.1c0,4.5-1.7,8-5.1,10.6
		c-3.4,2.6-8,3.8-13.7,3.8c-4,0-7.6-0.7-10.9-2.2c-3.3-1.5-5.8-3.5-7.5-6c-1.7-2.5-2.6-5.5-2.6-8.8h10.7c0,5.7,3.4,8.6,10.3,8.6
		c2.5,0,4.5-0.5,5.9-1.5C30.8,52.1,31.5,50.6,31.5,48.8z"/>
	<path d="M80.7,39.9H60.2v13.9h24.1v8.6H49.5V10.5h34.7v8.7h-24v12.4h20.5V39.9z"/>
	<path d="M104.5,10.5l13.3,37.6L131,10.5h14v51.9h-10.7V48.2l1.1-24.5l-14,38.6h-7.3l-14-38.6l1.1,24.4v14.2H90.5V10.5H104.5z"/>
	<path d="M159.9,52.1c1.7,0,3.1,0.5,4.2,1.5c1.1,1,1.6,2.3,1.6,3.9c0,1.6-0.5,2.9-1.6,3.9c-1.1,1-2.5,1.5-4.2,1.5
		c-1.7,0-3.1-0.5-4.1-1.5c-1.1-1-1.6-2.3-1.6-3.9c0-1.6,0.5-2.9,1.6-3.9C156.8,52.6,158.2,52.1,159.9,52.1z M164.2,46.5h-8.5
		l-1.2-35.9h11L164.2,46.5z"/>
</g>
</svg>
